<svg width="370" height="240" fill="none" xmlns="http://www.w3.org/2000/svg"><g clip-path="url(#clip0_2044_761)" fill="#000"><path d="M53.037 234.249h-2.54v3.873c0 .552-.131.972-.393 1.262a1.29 1.29 0 0 1-.99.431c-.398 0-.753-.142-1.01-.42-.256-.284-.382-.705-.382-1.251v-10.549c0-.612.142-1.043.42-1.306.28-.262.727-.393 1.333-.393h3.557c1.054 0 1.863.082 2.425.24a3.542 3.542 0 0 1 2.382 2.104c.213.524.317 1.108.317 1.764 0 1.393-.432 2.453-1.29 3.174-.857.716-2.135 1.076-3.834 1.076l.005-.005zm-.672-6.272h-1.868v4.185h1.868c.656 0 1.197-.071 1.634-.208.442-.136.775-.36 1.01-.672.23-.311.344-.721.344-1.223 0-.601-.174-1.098-.53-1.475-.398-.405-1.218-.607-2.452-.607h-.006zm7.747 5.944v-6.583c0-.557.125-.978.371-1.262.257-.278.59-.42 1-.42.41 0 .77.142 1.016.42.257.279.382.699.382 1.262v6.73c0 .765.082 1.41.252 1.923.174.508.48.907.912 1.197.437.278 1.043.42 1.83.42 1.082 0 1.846-.284 2.294-.857.448-.579.672-1.453.672-2.623v-6.784c0-.569.126-.989.372-1.262.251-.279.584-.421 1-.421.415 0 .753.142 1.01.421.262.273.393.693.393 1.262v6.582c0 1.071-.103 1.961-.317 2.677a4.107 4.107 0 0 1-1.174 1.885 4.617 4.617 0 0 1-1.737 1.01c-.661.213-1.431.317-2.316.317-1.055 0-1.956-.114-2.715-.333-.76-.229-1.377-.584-1.858-1.054-.48-.481-.83-1.087-1.054-1.83-.224-.749-.339-1.639-.339-2.672l.006-.005zm17.852-.191h-.972v4.397c0 .579-.126 1.005-.383 1.279-.256.273-.59.409-1 .409-.442 0-.786-.142-1.026-.431-.246-.284-.366-.705-.366-1.262v-10.533c0-.595.136-1.032.404-1.3.268-.267.7-.398 1.3-.398h4.507c.623 0 1.153.027 1.595.081.443.05.841.159 1.196.317.432.181.809.437 1.137.776.327.333.579.727.748 1.175.175.442.262.912.262 1.409 0 1.021-.29 1.835-.868 2.447-.574.612-1.443 1.044-2.612 1.3.492.263.962.645 1.41 1.159.448.508.847 1.054 1.196 1.633.355.574.629 1.093.82 1.557.202.459.3.781.3.95 0 .17-.06.361-.18.541-.11.175-.268.312-.465.41a1.467 1.467 0 0 1-.688.158c-.311 0-.573-.076-.786-.224a2.114 2.114 0 0 1-.552-.551 28.565 28.565 0 0 1-.618-.989l-1.108-1.847c-.4-.677-.754-1.196-1.071-1.551-.312-.355-.628-.595-.95-.727-.323-.131-.733-.196-1.224-.196l-.006.011zm1.584-5.753h-2.556v3.764h2.485c.667 0 1.224-.054 1.683-.169.453-.12.797-.317 1.038-.59.24-.279.366-.661.366-1.147 0-.377-.098-.71-.29-1a1.74 1.74 0 0 0-.803-.656c-.322-.136-.961-.207-1.912-.207l-.01.005zm9.61-.497l3.097 9.178 3.108-9.243c.164-.487.284-.82.366-1.011.082-.191.213-.366.405-.513.185-.159.442-.235.764-.235.235 0 .454.06.656.174.207.121.366.279.475.476.12.191.175.388.175.59 0 .136-.016.284-.055.448a3.822 3.822 0 0 1-.142.469c-.054.148-.109.306-.169.465l-3.316 8.942c-.12.345-.235.672-.355.984-.12.306-.257.573-.41.814-.153.229-.366.42-.623.568-.256.147-.568.224-.945.224s-.688-.077-.95-.224a1.78 1.78 0 0 1-.623-.568 4.408 4.408 0 0 1-.41-.82 27.36 27.36 0 0 1-.355-.972l-3.256-8.866a9.572 9.572 0 0 0-.174-.476 5.048 5.048 0 0 1-.148-.502 2.243 2.243 0 0 1-.054-.459c0-.317.125-.606.382-.869.257-.262.573-.393.961-.393.476 0 .809.148 1 .437.197.284.404.749.606 1.382h-.01zm19.775.552h-6.244v3.36h5.752c.421 0 .738.098.945.289.213.186.317.437.317.749 0 .311-.104.568-.306.764-.207.192-.524.29-.95.29h-5.753v3.895h6.463c.437 0 .765.104.978.306.224.196.338.464.338.803 0 .338-.114.59-.338.792-.219.197-.546.3-.978.3h-7.533c-.601 0-1.038-.131-1.306-.398-.262-.268-.393-.7-.393-1.301v-10.286c0-.399.06-.721.18-.972.12-.257.3-.438.552-.552.257-.12.579-.175.972-.175h7.32c.443 0 .771.098.978.3.219.192.328.448.328.765s-.109.585-.328.781c-.213.192-.541.29-.978.29h-.016zm6.402 10.09v-4.343l-3.343-5.179c-.295-.464-.502-.83-.628-1.092-.12-.263-.175-.492-.175-.683 0-.317.12-.59.366-.82a1.3 1.3 0 0 1 .912-.344c.377 0 .667.109.858.328.197.213.492.639.885 1.278l2.557 4.152 2.584-4.152c.153-.257.284-.47.393-.644a3.87 3.87 0 0 1 .344-.487c.131-.158.273-.273.432-.355a1.21 1.21 0 0 1 .568-.12c.349 0 .639.115.868.344.235.224.355.486.355.787 0 .24-.06.486-.174.726-.121.241-.323.579-.607 1.011l-3.425 5.255v4.343c0 .568-.131.989-.393 1.268-.262.278-.596.42-1 .42s-.743-.136-1-.409c-.256-.279-.382-.705-.382-1.279l.005-.005zm14.275-12.461c1.42 0 2.633.29 3.649.869a5.58 5.58 0 0 1 2.316 2.452c.525 1.06.787 2.306.787 3.737 0 1.06-.142 2.021-.432 2.884a6.196 6.196 0 0 1-1.289 2.251 5.71 5.71 0 0 1-2.109 1.459c-.835.338-1.791.502-2.868.502-1.076 0-2.026-.169-2.873-.513-.847-.35-1.551-.836-2.12-1.464-.568-.629-.994-1.382-1.289-2.267a9.336 9.336 0 0 1-.431-2.868c0-1.027.147-2.016.448-2.896.305-.879.742-1.622 1.316-2.239a5.571 5.571 0 0 1 2.092-1.41c.82-.328 1.754-.497 2.803-.497zm3.944 7.042c0-1-.164-1.869-.486-2.606-.323-.738-.787-1.289-1.393-1.661-.596-.382-1.284-.568-2.065-.568-.552 0-1.065.104-1.541.317a3.375 3.375 0 0 0-1.212.907c-.339.399-.601.907-.804 1.529-.191.618-.289 1.311-.289 2.082 0 .77.098 1.48.289 2.108.197.629.476 1.153.831 1.568.36.41.77.721 1.234.923.465.208.978.306 1.53.306.71 0 1.36-.18 1.95-.53.596-.355 1.071-.901 1.421-1.644.355-.743.529-1.65.529-2.737l.006.006zm8.522 1.027h-.972v4.397c0 .579-.126 1.005-.383 1.279-.257.273-.59.409-1 .409-.442 0-.786-.142-1.027-.431-.24-.284-.366-.705-.366-1.262v-10.533c0-.595.132-1.032.399-1.3.268-.267.699-.398 1.3-.398h4.507c.623 0 1.153.027 1.595.081.443.05.842.159 1.197.317.431.181.808.437 1.136.776.328.333.579.727.748 1.175.175.442.263.912.263 1.409 0 1.021-.29 1.835-.869 2.447-.574.612-1.442 1.044-2.617 1.3.492.263.962.645 1.41 1.159.448.508.847 1.054 1.196 1.633.355.574.628 1.093.82 1.557.196.459.3.781.3.95 0 .17-.06.361-.175.541a1.162 1.162 0 0 1-.464.41 1.484 1.484 0 0 1-.688.158c-.312 0-.574-.076-.782-.224a2.107 2.107 0 0 1-.551-.551 28.828 28.828 0 0 1-.618-.989l-1.109-1.847c-.398-.677-.754-1.196-1.076-1.551-.311-.355-.628-.595-.95-.727-.323-.131-.732-.196-1.224-.196v.011zm1.584-5.753h-2.556v3.764h2.485c.667 0 1.224-.054 1.683-.169.453-.12.797-.317 1.038-.59.245-.279.366-.661.366-1.147 0-.377-.099-.71-.29-1a1.74 1.74 0 0 0-.803-.656c-.322-.136-.961-.207-1.912-.207l-.011.005zm18.47 7.495c0 .831-.213 1.574-.645 2.229-.42.661-1.043 1.175-1.868 1.552-.819.371-1.797.557-2.922.557-1.35 0-2.464-.257-3.344-.765a4.54 4.54 0 0 1-1.524-1.464c-.388-.617-.579-1.213-.579-1.792 0-.339.115-.623.344-.858.235-.24.536-.366.896-.366.295 0 .541.093.738.279.207.186.377.464.524.83.175.437.361.798.557 1.093.208.295.492.535.858.727.366.185.852.278 1.448.278.819 0 1.485-.191 1.999-.568.519-.388.776-.863.776-1.437 0-.453-.142-.819-.421-1.103-.273-.284-.634-.503-1.071-.656a19.391 19.391 0 0 0-1.753-.475c-.984-.229-1.808-.497-2.475-.803-.661-.311-1.185-.732-1.579-1.262-.388-.535-.579-1.196-.579-1.988 0-.793.208-1.421.618-2.005.409-.585 1.005-1.033 1.78-1.344.776-.317 1.694-.475 2.743-.475.841 0 1.568.103 2.174.316.617.208 1.125.481 1.53.831.404.344.699.705.885 1.081.185.383.278.749.278 1.109 0 .328-.12.629-.355.896a1.102 1.102 0 0 1-.868.394c-.317 0-.563-.077-.727-.235-.164-.164-.339-.421-.53-.781-.251-.519-.546-.918-.896-1.202-.349-.295-.907-.437-1.682-.437-.716 0-1.295.158-1.738.475-.437.311-.655.688-.655 1.131 0 .273.076.508.224.71.147.197.355.371.617.513.262.142.525.257.792.334.268.082.71.196 1.328.355.77.18 1.469.382 2.092.595.628.219 1.158.481 1.595.792a3.21 3.21 0 0 1 1.027 1.186c.251.475.372 1.054.372 1.748l.016.005zm12.39-9.811c1.42 0 2.638.29 3.649.869a5.586 5.586 0 0 1 2.316 2.452c.525 1.06.787 2.306.787 3.737 0 1.06-.142 2.021-.432 2.884a6.196 6.196 0 0 1-1.289 2.251 5.67 5.67 0 0 1-2.109 1.459c-.835.338-1.791.502-2.868.502-1.076 0-2.026-.169-2.873-.513-.847-.35-1.552-.836-2.12-1.464-.568-.629-.994-1.382-1.289-2.267a9.336 9.336 0 0 1-.431-2.868c0-1.027.147-2.016.447-2.896.306-.879.743-1.622 1.317-2.239a5.571 5.571 0 0 1 2.092-1.41c.82-.328 1.754-.497 2.803-.497zm3.938 7.042c0-1-.163-1.869-.486-2.606-.322-.738-.786-1.289-1.393-1.661-.595-.382-1.284-.568-2.065-.568a3.72 3.72 0 0 0-1.54.317 3.379 3.379 0 0 0-1.213.907c-.333.399-.606.907-.803 1.529a7.03 7.03 0 0 0-.29 2.082c0 .77.099 1.48.29 2.108.197.629.475 1.153.83 1.568.361.41.771.721 1.235.923.464.208.978.306 1.53.306.71 0 1.36-.18 1.95-.53.595-.355 1.07-.901 1.42-1.644.355-.743.53-1.65.53-2.737l.005.006zm12.98-4.671h-5.463v3.502h4.567c.421 0 .738.098.945.289.213.186.317.437.317.759 0 .323-.104.569-.317.754-.213.186-.524.279-.945.279h-4.567v4.507c0 .573-.131.999-.393 1.278-.257.273-.585.41-.989.41s-.748-.142-1.01-.421c-.257-.278-.383-.705-.383-1.267v-10.533c0-.398.06-.721.175-.972.12-.257.3-.437.552-.552.256-.12.579-.174.972-.174h6.534c.442 0 .77.098.978.3.218.191.327.448.327.765s-.109.584-.327.781c-.214.191-.541.289-.978.289l.005.006zm10.112-.688v9.958h5.621c.448 0 .792.11 1.027.328.24.219.366.492.366.82 0 .327-.12.611-.355.819-.235.208-.585.306-1.038.306h-6.692c-.601 0-1.038-.131-1.306-.399-.262-.268-.393-.699-.393-1.3v-10.543c0-.558.126-.978.372-1.262.256-.279.59-.421.999-.421.41 0 .754.142 1.011.421.262.273.393.694.393 1.262l-.005.011zm13.526-1.683c1.42 0 2.638.29 3.649.869a5.58 5.58 0 0 1 2.316 2.452c.525 1.06.787 2.306.787 3.737 0 1.06-.142 2.021-.432 2.884a6.196 6.196 0 0 1-1.289 2.251 5.67 5.67 0 0 1-2.109 1.459c-.835.338-1.791.502-2.868.502-1.076 0-2.026-.169-2.873-.513-.847-.35-1.551-.836-2.12-1.464-.568-.629-.994-1.382-1.289-2.267a9.336 9.336 0 0 1-.431-2.868c0-1.027.147-2.016.448-2.896.305-.879.743-1.622 1.316-2.239a5.571 5.571 0 0 1 2.092-1.41c.82-.328 1.754-.497 2.803-.497zm3.938 7.042c0-1-.163-1.869-.486-2.606-.322-.738-.786-1.289-1.393-1.661-.595-.382-1.283-.568-2.065-.568a3.72 3.72 0 0 0-1.54.317 3.379 3.379 0 0 0-1.213.907c-.333.399-.606.907-.803 1.529-.191.618-.289 1.311-.289 2.082 0 .77.098 1.48.289 2.108.197.629.475 1.153.83 1.568.361.41.771.721 1.235.923.464.208.978.306 1.53.306.71 0 1.36-.18 1.95-.53.595-.355 1.071-.901 1.42-1.644.355-.743.53-1.65.53-2.737l.005.006zm16.46 2.556c0 .437-.109.907-.328 1.421-.213.502-.546.999-1.01 1.491-.459.486-1.049.879-1.765 1.185-.716.306-1.551.459-2.502.459a8.51 8.51 0 0 1-1.972-.207 5.783 5.783 0 0 1-1.617-.634 5.643 5.643 0 0 1-1.327-1.147 6.951 6.951 0 0 1-.924-1.437 7.704 7.704 0 0 1-.579-1.71 9.493 9.493 0 0 1-.185-1.923c0-1.103.158-2.087.475-2.961a6.235 6.235 0 0 1 1.382-2.228 5.951 5.951 0 0 1 2.103-1.421 6.844 6.844 0 0 1 2.568-.486c1.109 0 2.092.219 2.961.661.863.443 1.529.989 1.988 1.644.459.645.694 1.262.694 1.841 0 .317-.115.596-.339.842a1.056 1.056 0 0 1-.814.366c-.355 0-.623-.082-.803-.252-.175-.169-.371-.459-.59-.868-.36-.678-.787-1.186-1.278-1.524-.486-.339-1.087-.503-1.803-.503-1.142 0-2.048.432-2.726 1.3-.672.863-1.011 2.092-1.011 3.688 0 1.065.148 1.95.448 2.66.301.705.722 1.229 1.268 1.579.546.349 1.191.524 1.923.524.797 0 1.469-.196 2.016-.59.551-.399.972-.978 1.25-1.742.121-.361.263-.656.438-.88.174-.229.453-.344.841-.344.328 0 .612.115.847.344.234.23.355.519.355.858l.016-.006zm10.866 2.77l-.656-1.715h-5.567l-.655 1.753c-.257.683-.475 1.147-.656 1.393-.18.235-.475.355-.885.355-.349 0-.655-.125-.923-.382s-.404-.546-.404-.869c0-.185.033-.382.093-.579.06-.196.164-.475.306-.83l3.501-8.888c.099-.257.219-.557.355-.912.142-.361.295-.661.448-.896.164-.235.372-.426.623-.568.262-.148.585-.224.962-.224s.704.076.961.224c.262.142.47.327.628.562.164.23.295.481.399.749.115.262.251.611.421 1.054l3.578 8.833c.278.672.421 1.158.421 1.464 0 .306-.132.612-.405.88a1.295 1.295 0 0 1-.95.393 1.203 1.203 0 0 1-.956-.426 3.383 3.383 0 0 1-.344-.617c-.121-.279-.219-.525-.306-.738l.011-.016zm-5.485-3.797h4.092l-2.065-5.648-2.027 5.648zm12.827-6.888v9.958h5.621c.448 0 .792.11 1.027.328.246.219.366.492.366.82 0 .327-.12.611-.355.819-.235.208-.585.306-1.038.306h-6.692c-.601 0-1.038-.131-1.306-.399-.262-.268-.393-.699-.393-1.3v-10.543c0-.558.126-.978.371-1.262.257-.279.59-.421 1-.421.41 0 .754.142 1.011.421.262.273.393.694.393 1.262l-.005.011zm25.358 6.67v2.622c0 .35-.033.628-.104.841a1.242 1.242 0 0 1-.382.557c-.18.17-.415.328-.699.487-.831.448-1.623.775-2.393.977-.765.208-1.601.306-2.502.306-1.054 0-2.01-.164-2.873-.486a6.042 6.042 0 0 1-2.213-1.409 6.208 6.208 0 0 1-1.409-2.24c-.323-.88-.487-1.857-.487-2.939s.159-2.038.476-2.923c.317-.885.781-1.633 1.398-2.25a6.074 6.074 0 0 1 2.251-1.41c.885-.328 1.885-.497 3.004-.497.924 0 1.738.126 2.448.372.71.24 1.284.551 1.726.923.443.371.776.77 1 1.185.224.415.338.787.338 1.109 0 .35-.131.645-.393.896a1.308 1.308 0 0 1-1.961-.169c-.344-.536-.634-.94-.869-1.213-.235-.273-.557-.503-.961-.688-.399-.186-.907-.279-1.53-.279-.622 0-1.212.109-1.715.333a3.563 3.563 0 0 0-1.3.962c-.355.415-.628.928-.82 1.54a6.967 6.967 0 0 0-.278 2.027c0 1.606.366 2.841 1.103 3.709.743.863 1.77 1.3 3.092 1.3.639 0 1.24-.081 1.803-.251a8.965 8.965 0 0 0 1.715-.721v-2.223h-2.147c-.519 0-.906-.077-1.174-.235-.262-.159-.393-.421-.393-.792a.97.97 0 0 1 .327-.754c.224-.197.525-.301.907-.301h3.147c.388 0 .71.033.978.104.267.066.48.219.644.459.17.235.252.59.252 1.065l-.006.006zm8.276-8.353c1.421 0 2.639.29 3.649.869a5.588 5.588 0 0 1 2.317 2.452c.524 1.06.781 2.306.781 3.737 0 1.06-.142 2.021-.432 2.884a6.196 6.196 0 0 1-1.289 2.251 5.702 5.702 0 0 1-2.109 1.459c-.835.338-1.786.502-2.868.502-1.081 0-2.026-.169-2.873-.513-.847-.35-1.551-.836-2.12-1.464-.568-.629-.994-1.382-1.289-2.267a9.336 9.336 0 0 1-.431-2.868c0-1.027.147-2.016.448-2.896.306-.879.743-1.622 1.316-2.239a5.58 5.58 0 0 1 2.092-1.41c.82-.328 1.754-.497 2.803-.497h.005zm3.944 7.042c0-1-.163-1.869-.486-2.606-.322-.738-.786-1.289-1.393-1.661-.595-.382-1.284-.568-2.065-.568a3.72 3.72 0 0 0-1.54.317 3.379 3.379 0 0 0-1.213.907c-.339.399-.606.907-.803 1.529a7.03 7.03 0 0 0-.29 2.082c0 .77.099 1.48.29 2.108.197.629.475 1.153.83 1.568.361.41.771.721 1.235.923.464.208.978.306 1.53.306.71 0 1.36-.18 1.95-.53.595-.355 1.07-.901 1.42-1.644.355-.743.53-1.65.53-2.737l.005.006zm10.817-7.042c1.42 0 2.638.29 3.649.869a5.58 5.58 0 0 1 2.316 2.452c.525 1.06.787 2.306.787 3.737 0 1.06-.142 2.021-.432 2.884a6.196 6.196 0 0 1-1.289 2.251 5.661 5.661 0 0 1-2.109 1.459c-.835.338-1.791.502-2.868.502-1.076 0-2.026-.169-2.873-.513-.847-.35-1.551-.836-2.12-1.464-.568-.629-.994-1.382-1.289-2.267a9.336 9.336 0 0 1-.431-2.868c0-1.027.147-2.016.448-2.896.306-.879.743-1.622 1.316-2.239a5.58 5.58 0 0 1 2.092-1.41c.82-.328 1.754-.497 2.803-.497zm3.944 7.042c0-1-.164-1.869-.486-2.606-.322-.738-.787-1.289-1.393-1.661-.596-.382-1.284-.568-2.065-.568-.552 0-1.065.104-1.541.317a3.375 3.375 0 0 0-1.212.907c-.334.399-.601.907-.803 1.529-.192.618-.29 1.311-.29 2.082 0 .77.098 1.48.29 2.108.196.629.475 1.153.83 1.568.36.41.77.721 1.234.923.465.208.978.306 1.53.306.71 0 1.36-.18 1.95-.53.596-.355 1.071-.901 1.421-1.644.355-.743.53-1.65.53-2.737l.005.006zm6.517-6.807h3.611c.94 0 1.748.087 2.42.262a4.49 4.49 0 0 1 1.83.978c1.426 1.218 2.136 3.076 2.136 5.567 0 .819-.071 1.573-.213 2.25a6.854 6.854 0 0 1-.661 1.841 5.885 5.885 0 0 1-1.147 1.459c-.366.328-.77.595-1.207.792a5.615 5.615 0 0 1-1.41.421c-.497.082-1.06.12-1.688.12h-3.611c-.502 0-.885-.077-1.141-.224a1.11 1.11 0 0 1-.503-.645c-.077-.278-.115-.639-.115-1.081V227.6c0-.595.131-1.032.404-1.3.268-.267.7-.399 1.301-.399l-.006-.005zm1.071 2.191v9.292h2.103c.459 0 .82-.011 1.082-.038.262-.028.53-.088.814-.186.278-.098.524-.24.726-.421.929-.786 1.393-2.136 1.393-4.053 0-1.35-.207-2.36-.617-3.032-.404-.672-.907-1.098-1.502-1.278-.596-.186-1.317-.279-2.164-.279h-1.83l-.005-.005zM158.323 81.503s.017.01.028.01c.016.006.038.017.054.022a.598.598 0 0 1-.082-.038v.006zm90.416 82.521c.082.077.159.153.24.235-.081-.082-.163-.158-.245-.235h.005z"/><path d="M360.962 46.923c-.017-1.929-.787-3.633-2.284-5.07-1.507-1.447-3.31-2.152-5.512-2.152-1.376 0-2.584.262-3.589.781-.961.503-1.835 1.218-2.6 2.141a20.75 20.75 0 0 0-1.579 2.17l-13.723 21.572c-.087.016-.18.033-.273.033-.464 0-.885-.24-1.136-.629l-10.805-17.208c-2.071-3.32-3.666-5.588-4.731-6.74-1.322-1.426-3.13-2.12-5.523-2.12-.645 0-1.251.054-1.83.175a14.676 14.676 0 0 0-2.262-.164H260.2c-1.24 0-2.36.136-3.349.415-.967-.279-2.07-.415-3.299-.415h-37.301c-2.239 0-4.048.333-5.539 1.01-1.382.634-2.42 1.563-3.163 2.82l.131-.225-1.469 2.311c-.366-1.863-1.087-3.382-2.164-4.523-1.644-1.737-3.698-2.584-6.276-2.584-2.492 0-4.556.88-6.124 2.617a7.368 7.368 0 0 0-.754.994l-4.146 6.517a19.346 19.346 0 0 0-2.104-2.524 19.454 19.454 0 0 0-6.326-4.26c-1.939-.875-4.13-1.46-6.517-1.749-2.311-.273-5.108-.41-8.32-.41h-22.982c-3.441 0-6.014.83-7.648 2.47-.36.36-.677.77-.956 1.218.017-.022.028-.05.038-.071L120.98 60.536a6248.62 6248.62 0 0 1-3.327-7.992 228.547 228.547 0 0 0-2.164-5.36 22.028 22.028 0 0 0-2.234-4.047c-.95-1.35-2.201-2.464-3.715-3.316-1.546-.869-3.458-1.306-5.67-1.306-2.213 0-4.075.437-5.605 1.306a10.612 10.612 0 0 0-3.66 3.376c-.082.12-.164.251-.24.382.027-.043.049-.087.076-.125l-4.54 7.134c.175-.557.328-1.125.46-1.693.207-.913.305-1.781.3-2.59-.011-1.273-.388-2.54-1.126-3.764a8.243 8.243 0 0 0-2.988-2.922 8.11 8.11 0 0 0-4.119-1.104c-1.994 0-3.622.503-4.834 1.497-.798.656-1.437 1.377-1.923 2.163.016-.027.032-.06.054-.092L58.507 69.146c-.224.355-.421.72-.58 1.103-.42 1-1.038 2.764-1.846 5.25l-1.093 3.332c-4.031-11.548-10.455-29.98-10.494-30.078-1.114-3.327-2.228-5.807-3.31-7.38-1.311-1.896-3.458-2.858-6.38-2.858-2.41 0-4.355.798-5.95 2.437-.48.492-.885 1-1.212 1.524a4.99 4.99 0 0 0 .016-.033l-17.23 27.08a7.088 7.088 0 0 0-1.13 3.949c.005.754.13 1.617.37 2.644.23.983.514 1.912.853 2.764.295.76.59 1.546.88 2.35.136.365 4.48 11.832 8.751 23.113 4.174 11.029 8.282 21.878 8.309 21.96.617 1.726 1.24 3.382 1.857 4.933.656 1.639 1.432 3.13 2.306 4.43a10.883 10.883 0 0 0 3.73 3.415c1.547.863 3.426 1.305 5.578 1.305.842 0 12.898.213 15.777 0l-9.904 15.569c-1.945 3.06-2.912 6.55-2.874 10.391.044 4.315 1.175 7.997 3.366 10.947 1.272 1.716 2.818 3.218 4.616 4.512l-7.883 12.39c-.77 1.213-1.142 2.579-1.131 4.13.033 3.212 1.142 6.534 3.3 9.871a24.602 24.602 0 0 0 8.32 7.954c4.708 2.71 10.706 4.087 17.825 4.087 5.927 0 11.138-1 15.481-2.972 4.414-2.011 7.812-4.84 10.096-8.413l12.4-19.491.202 20.813c.033 3.25.853 5.752 2.442 7.451 1.623 1.732 3.72 2.612 6.239 2.612 2.485 0 4.545-.869 6.118-2.59.279-.306.53-.634.759-.994l11.325-17.798c1.562 4.163 3.758 7.806 6.539 10.844 3.054 3.343 6.9 5.965 11.423 7.795 4.49 1.819 9.62 2.737 15.246 2.737 5.611 0 10.331-.847 14.848-2.666 4.425-1.781 8.2-4.397 11.227-7.773a31.384 31.384 0 0 0 2.715-3.502l.016 3.873c.033 3.163.798 5.638 2.283 7.358 1.546 1.792 3.699 2.705 6.403 2.705 2.551 0 4.567-.836 6.162-2.557.284-.306.541-.639.77-1l14.75-23.184s.027.033.044.049c1.546 1.721 3.348 4.283 5.359 7.643l5.752 9.379c1.388 2.262 2.453 3.928 3.256 5.097a12.387 12.387 0 0 0 3.201 3.207c1.338.912 2.972 1.377 4.862 1.377 1.562 0 2.977-.317 4.195-.946a7.7 7.7 0 0 0 1.896-1.354c.382.185.787.349 1.218.486 1.295.42 2.819.628 4.567.628h38.398c2.595 0 4.617-.65 6.01-1.928a6.708 6.708 0 0 0 1.114-1.322l17.219-27.063s-.028.038-.038.06c.71-1.093 1.065-2.376 1.054-3.84-.022-2.131-.77-3.879-2.223-5.196-1.421-1.278-3.453-1.928-6.048-1.928h-9.565l12.646-19.874a3.527 3.527 0 0 0-.082.12c.732-1.092 1.098-2.381 1.082-3.856-.022-2.306-.574-3.775-1.836-4.917-1.354-1.218-3.326-1.835-5.856-1.835h-1.486s10.931-17.186 10.915-17.165c.606-.928 12.106-20.627 12.106-20.627 1.032-1.623 1.546-3.775 1.518-6.414l-.191-20.016v-.016c.213-.328.421-.644.612-.95l17.219-27.063c-.071.114-.153.235-.23.355 1.142-1.776 1.967-3.19 2.497-4.294.683-1.431 1.027-2.895 1.011-4.348l-.022-.011zm-101.276 4.73l.011-.01c1.393-1.284 2.092-2.978 2.071-5.048-.017-1.874-.634-3.442-1.836-4.682h45.205c2.245 0 3.922.481 4.982 1.426 1.049.94 1.568 2.147 1.584 3.688.017 1.535-.486 2.73-1.529 3.66-1.055.934-2.721 1.409-4.939 1.409h-12.591a3.5 3.5 0 0 0-3.508 3.529l.459 47.636c.022 2.289-.388 4.086-1.212 5.348-.055.082-.11.164-.17.24-.022.033-.044.066-.071.093a7.272 7.272 0 0 1-.251.301c-1.142 1.245-2.655 1.879-4.501 1.879-1.874 0-3.426-.639-4.606-1.901-1.196-1.278-1.819-3.283-1.841-5.955l-.459-47.636c-.016-1.944-1.622-3.529-3.578-3.529h-12.591c-.388 0-.754-.016-1.109-.043.142-.11.278-.224.415-.339a.56.56 0 0 0 .065-.055v-.01zm-50.859-5.522c.104-.34.219-.656.355-.951a5.234 5.234 0 0 1 .656-1.076l.06-.077c.005-.005.011-.016.022-.027.033-.038.065-.071.098-.104.197-.218.415-.42.656-.595.038-.033.082-.06.125-.093.022-.016.044-.033.071-.05.017-.01.028-.021.044-.032.055-.038.115-.071.175-.11.022-.016.044-.027.071-.043l.044-.027c.021-.011.043-.028.065-.038.12-.066.246-.132.377-.192 1.196-.546 2.704-.814 4.616-.814h37.3c1.284 0 2.366.17 3.229.514.519.202.961.47 1.322.792.956.863 1.426 1.967 1.442 3.381 0 .164 0 .317-.016.47 0 .044-.006.082-.011.126a7.076 7.076 0 0 1-.044.371.384.384 0 0 1-.011.082 4.684 4.684 0 0 1-.093.416c-.011.032-.016.065-.027.098-.033.11-.066.213-.109.317-.011.032-.022.065-.038.093a3.32 3.32 0 0 1-.148.316c-.011.017-.016.033-.022.05 0 .005-.011.016-.016.021-.006.011-.011.022-.022.033a4.242 4.242 0 0 1-.158.257l-.088.12c-.038.055-.076.11-.12.158-.033.044-.066.088-.098.126a3.858 3.858 0 0 1-.798.71c-.95.64-2.316.962-4.086.962h-29.008a3.516 3.516 0 0 0-2.83 1.431 3.705 3.705 0 0 0-.404.7l-.033.076c-.01.027-.016.054-.027.076-.022.05-.038.104-.055.159 0 .01-.005.022-.01.032-.006.011-.006.022-.011.033a4.486 4.486 0 0 0-.077.3c0 .023-.011.05-.011.072-.011.049-.016.098-.022.147 0 .033-.011.066-.016.099v.147c-.005.087-.011.17-.011.262l.109 11.429c.017 1.944 1.623 3.528 3.578 3.528h26.484c1.961 0 3.431.421 4.354 1.257.923.83 1.377 1.906 1.393 3.283 0 .158 0 .306-.016.459 0 .076-.017.147-.022.224a4.59 4.59 0 0 1-.279 1.19c-.021.056-.049.1-.071.154a3.922 3.922 0 0 1-.311.579c-.011.016-.022.038-.033.055-.164.245-.36.475-.584.688-.896.858-2.36 1.295-4.343 1.295H224.91c-.454 0-.891.087-1.289.245a.252.252 0 0 0-.06.022c-.132.055-.257.12-.383.186l-.098.066c-.077.049-.159.098-.235.152-.027.022-.055.039-.082.06a3.477 3.477 0 0 0-.918 1.06c-.011.017-.022.033-.033.055a.043.043 0 0 1-.01.022c-.028.049-.05.104-.077.158-.022.055-.049.104-.071.159 0 .005 0 .01-.005.022-.022.054-.039.109-.061.163-.005.022-.016.044-.027.071-.005.022-.016.039-.022.06a5.166 5.166 0 0 0-.076.3v.017c0 .022-.006.039-.011.06-.011.055-.016.11-.022.164 0 .028-.011.055-.011.082v.038c0 .017 0 .039-.005.055v.055a3.852 3.852 0 0 0-.011.267l.136 14.127c.017 1.945 1.623 3.529 3.578 3.529h30.101c.251 0 .497.006.737.022 1.661.098 2.945.546 3.808 1.328.989.896 1.48 2.065 1.491 3.572a5.48 5.48 0 0 1-.18 1.475.048.048 0 0 1-.011.028c-.027.103-.06.202-.098.3-.011.033-.028.066-.044.098-.027.071-.06.148-.093.219-.016.038-.038.071-.06.109a8.304 8.304 0 0 1-.098.191l-.104.17c-.028.038-.049.082-.077.12 0 0 0 .005-.005.011l-.033.049c-.038.055-.087.109-.126.158-.038.05-.082.11-.125.159-.011.016-.028.027-.038.044l-.017.016c-.098.104-.197.213-.306.311a4.22 4.22 0 0 1-.836.59c-.934.508-2.168.765-3.687.765h-38.398c-2.863 0-4.933-.612-6.146-1.825-1.213-1.212-1.846-3.261-1.874-6.085l-.502-52.198c-.017-1.447.125-2.665.431-3.687v.006zm-15.541-3.502c1.158-1.278 2.627-1.901 4.495-1.901 1.962 0 3.442.595 4.655 1.879.655.688 1.136 1.6 1.442 2.72a10.15 10.15 0 0 1 .268 1.334c.038.289.071.595.093.906.021.312.032.634.038.973l.524 54.71c.028 2.649-.546 4.638-1.693 5.916-.011.011-.022.028-.033.038-1.191 1.301-2.655 1.902-4.616 1.902-1.841 0-3.311-.629-4.507-1.923-1.196-1.295-1.819-3.295-1.846-5.939l-.525-54.71c-.027-2.644.552-4.632 1.71-5.91l-.005.005zm-60.638 6.446v-.148c.006-.13.016-.262.022-.387l.016-.29c0-.038.006-.076.011-.115.017-.163.033-.316.055-.47 0-.043.011-.081.016-.125a10.534 10.534 0 0 1 .12-.688c.011-.044.017-.088.028-.126.033-.148.071-.295.109-.437.295-1.065.754-1.912 1.382-2.54.071-.071.142-.142.219-.208.022-.016.043-.038.065-.054a4.54 4.54 0 0 1 .399-.3 6.01 6.01 0 0 1 1.377-.69 7.16 7.16 0 0 1 .371-.12c.142-.043.29-.081.437-.12.923-.224 2-.338 3.218-.338h22.982c3.125 0 5.834.13 8.052.399 2.125.25 4.064.77 5.862 1.562a17.402 17.402 0 0 1 5.643 3.78l.016.017a16.834 16.834 0 0 1 3.726 5.697c.858 2.169 1.305 4.496 1.327 6.922.044 4.425-1.049 8.09-3.239 10.92-.093.12-.186.235-.279.35a.576.576 0 0 1-.049.06 14.08 14.08 0 0 1-.519.59 13.92 13.92 0 0 1-.721.715c-.12.11-.246.213-.371.323-.126.109-.241.218-.372.322-.016.01-.027.022-.044.038a15.403 15.403 0 0 1-.89.683c-.251.18-.514.355-.787.53l-.098.065c-.016.011-.027.022-.044.028-.158.103-.322.202-.486.3a24.47 24.47 0 0 1-3.261 1.606c-.197.082-.399.159-.596.235-.431.164-.814.41-1.141.716l-.033.032a3.69 3.69 0 0 0-.202.219l-.099.115c-.082.104-.164.207-.235.322 0 0-.01.016-.01.022a3.14 3.14 0 0 0-.181.328l-.049.114c-.011.022-.016.044-.027.066-.028.071-.06.142-.082.213-.011.038-.027.076-.038.115a4.71 4.71 0 0 0-.099.399 3.474 3.474 0 0 0 .06 1.442 3.606 3.606 0 0 0 1.104 1.824c.562.497 1.12 1.033 1.666 1.595.333.34.661.689.983 1.055.339.382.672.77 1.005 1.158a61.147 61.147 0 0 1 5.119 7.009c1.12 1.802 2.098 3.501 2.912 5.091.164.317.322.628.47.94.3.617.579 1.212.83 1.791 1.284 2.956 1.48 4.136 1.486 4.578.005.771-.24 1.557-.738 2.338a3.712 3.712 0 0 1-.169.241c.044-.06.087-.126.131-.191-.054.082-.109.158-.164.24a5.464 5.464 0 0 1-2.152 1.71 6.108 6.108 0 0 1-1.147.388 7.478 7.478 0 0 1-.874.147 8.369 8.369 0 0 1-.924.049c-.513 0-.994-.043-1.447-.131a5.59 5.59 0 0 1-1.923-.715c-.077-.05-.153-.093-.23-.142a8.222 8.222 0 0 1-.502-.372 10.092 10.092 0 0 1-1.694-1.688 16.199 16.199 0 0 1-.431-.574c-.65-.934-1.475-2.217-2.513-3.895-.219-.349-.443-.71-.677-1.098l-5.747-9.368a80.995 80.995 0 0 0-2.257-3.568 54.163 54.163 0 0 0-.917-1.322 23.501 23.501 0 0 0-.394-.546 28.45 28.45 0 0 0-.53-.704 31.279 31.279 0 0 0-1.507-1.83c-.967-1.077-1.956-1.956-2.95-2.65 0 0-.006 0-.011-.005-.088-.06-.175-.126-.262-.186-.104-.071-.213-.131-.317-.197a.54.54 0 0 0 .06.033c-.087-.055-.18-.11-.268-.164-.043-.027-.082-.055-.125-.076a4.691 4.691 0 0 0-.23-.12c.027.016.055.027.082.043l-.278-.148c-.077-.043-.153-.087-.235-.125-.039-.016-.071-.033-.11-.05l-.114-.048c-.142-.066-.29-.131-.432-.192-1.3-.524-2.857-.852-4.649-.983a24.23 24.23 0 0 0-1.863-.066h-2.125c-.142 0-.284.011-.42.028-.044 0-.082.01-.126.022-.055.01-.115.016-.169.027-.23.05-.454.115-.661.208a3.495 3.495 0 0 0-2.136 3.25l.185 19.497c.022 2.054-.295 3.698-.945 4.922-.082.153-.169.3-.262.442-.027.044-.06.088-.093.131 0 .006-.011.011-.011.017-.021.033-.043.06-.065.093a4.862 4.862 0 0 1-.322.388 5.593 5.593 0 0 1-1.448 1.141c-.53.29-1.104.486-1.743.601a7.656 7.656 0 0 1-1.36.109c-.432 0-.841-.027-1.229-.087a6.62 6.62 0 0 1-.454-.087 5.783 5.783 0 0 1-1.327-.454c.35-.388.65-.781.912-1.185.066-.099.126-.202.186-.306l.066-.12.027-.049s.016-.033.027-.05c.038-.065.066-.136.104-.207.033-.071.071-.137.104-.208 0-.005.005-.011.011-.022 0 0 0-.011.005-.011.049-.114.098-.229.142-.344l.017-.043c.01-.033.027-.071.038-.104a5.483 5.483 0 0 0 .142-.426v-.022c.038-.137.071-.273.104-.415 0-.022.011-.044.016-.066 0-.016.005-.027.011-.044.027-.147.055-.295.076-.442v-.011c.011-.066.011-.131.017-.197.005-.082.016-.164.022-.251v-.044-.071-.098c0-.12.011-.24.011-.366 0-.372-.039-.77-.104-1.207a14.608 14.608 0 0 0-.295-1.421c-.12-.47-.268-.978-.448-1.518-.038-.115-.077-.235-.12-.355a27.271 27.271 0 0 0-.284-.798 62.487 62.487 0 0 0-1.082-2.699c-.049-.12-1.371-3.288-3.283-7.894l-.383-39.676c0-.257 0-.503.011-.743h.033zm-40.163 4.414c.039-.104.11-.279.192-.508.027-.077.06-.159.092-.246.028-.065.05-.131.077-.202.054-.137.11-.29.17-.443.06-.152.12-.31.18-.475.344-.896.715-1.873.928-2.425.017-.05.033-.088.05-.131.005-.022.016-.044.021-.06l.055-.137c.033-.087.065-.17.104-.257.065-.17.136-.344.202-.508.01-.027.022-.054.033-.076.027-.066.054-.126.082-.191.081-.197.163-.388.25-.574.034-.071.066-.148.1-.213.037-.087.081-.17.12-.257.048-.098.092-.202.141-.3a4.94 4.94 0 0 1 .12-.24l.148-.29c.038-.077.082-.153.12-.23.05-.093.099-.18.148-.267.043-.071.082-.148.125-.219.044-.076.088-.153.131-.224.12-.202.24-.399.367-.579a8.226 8.226 0 0 1 1.283-1.502 9.14 9.14 0 0 1 1.339-1.01l.295-.181c.781-.443 1.704-.743 2.753-.896a12.036 12.036 0 0 1 1.764-.126c1.033 0 1.972.115 2.814.334.278.07.546.153.803.245.344.126.666.274.967.443 1.218.683 2.223 1.579 2.977 2.65a19.672 19.672 0 0 1 2.01 3.632c.317.743.678 1.623 1.076 2.622.328.814.683 1.71 1.066 2.688 0 0 0 .006.278.672.011.033.028.06.039.093.081.191.18.437.305.737.192.454.437 1.044.754 1.814.115.284.246.59.383.918.196.475.415 1.005.661 1.59 2.365 5.68 7.03 16.89 16.257 39.048a50.222 50.222 0 0 1 1.235 3.152c.196.562.36 1.081.491 1.562.039.142.077.279.11.415.202.809.311 1.486.316 2.027.011 1.076-.3 2.038-.961 2.966-.005.011-.016.022-.022.033a6.24 6.24 0 0 1-.328.415 8.404 8.404 0 0 1-.464.508c-1.224 1.235-2.606 1.803-4.348 1.803-.765 0-1.443-.104-2.033-.306a4.902 4.902 0 0 1-.508-.207c-.109-.055-.213-.121-.316-.181a5.192 5.192 0 0 1-1.186-.939c-.093-.099-.18-.191-.268-.295a8.627 8.627 0 0 1-.721-1.087 21.39 21.39 0 0 1-.912-1.809.539.539 0 0 0-.038-.076c-.033-.066-.06-.131-.088-.197a226.437 226.437 0 0 1-1.398-3.179c-.038-.093-.077-.18-.115-.268-.011-.027-.027-.065-.049-.125-.022-.055-.049-.132-.082-.213-.022-.055-.044-.11-.065-.175l-.066-.164c-.027-.071-.055-.148-.087-.224l-.066-.164c0-.011-.011-.027-.016-.038-.749-1.907-2.191-5.589-2.289-5.834a3.502 3.502 0 0 0-.541-.93c-.055-.07-.115-.136-.175-.201-.087-.093-.186-.18-.284-.268a3.578 3.578 0 0 0-2.338-.874H92.207a3.517 3.517 0 0 0-2.23.792 3.44 3.44 0 0 0-1.075 1.502l-2.579 7.075c-.655 1.797-1.262 3.283-1.813 4.463-.099.213-.197.42-.295.612-.104.202-.203.393-.3.573-.1.181-.198.355-.296.514a19.124 19.124 0 0 1-.295.47 4.54 4.54 0 0 1-.164.229 3.151 3.151 0 0 1-.677.672 2.942 2.942 0 0 1-.415.262c-.738.399-1.688.607-2.835.607-1.448 0-2.672-.443-3.819-1.383a7.989 7.989 0 0 1-.415-.36 9.789 9.789 0 0 1-.399-.404c-.12-.137-.235-.268-.344-.405l-.071-.087c-.044-.06-.082-.12-.126-.18-.065-.093-.136-.186-.191-.279-.038-.065-.071-.131-.11-.202-.01-.022-.021-.038-.032-.06a4.779 4.779 0 0 1-.585-2.267c-.01-.874.132-1.787.416-2.726.136-.443.306-.956.519-1.546.005-.017.01-.038.022-.055l.049-.131c.01-.033.021-.06.032-.093s.028-.071.039-.109c.022-.066.049-.131.07-.197.012-.027.023-.054.028-.082.016-.049.033-.098.055-.147.038-.104.082-.213.12-.322.033-.082.06-.159.093-.24.043-.115.087-.236.136-.35.017-.039.028-.071.044-.11.016-.049.038-.093.055-.142.081-.207.163-.426.25-.65l17.41-45.095.006.005zm-37.84 56.6a8.54 8.54 0 0 1-2.973-2.709c-.792-1.169-1.49-2.513-2.086-4.01a141.34 141.34 0 0 1-1.83-4.856l-8.326-22c-4.266-11.274-8.61-22.74-8.74-23.09a83.166 83.166 0 0 0-.896-2.393 19.12 19.12 0 0 1-.76-2.459c-.207-.868-.305-1.578-.31-2.163-.012-1.29.414-2.409 1.332-3.496.115-.137.235-.273.372-.41.295-.3.6-.562.923-.786.972-.672 2.092-.99 3.447-.99 2.147 0 3.676.635 4.54 1.891.966 1.404 1.988 3.698 3.031 6.823.011.022 13.368 38.31 13.499 38.693a3.58 3.58 0 0 0 3.381 2.398c.126 0 .246-.01.366-.021h.039a.418.418 0 0 0 .082-.011c.087-.011.169-.033.251-.05.044-.01.087-.016.126-.021.022 0 .043-.011.06-.017a2.58 2.58 0 0 0 .29-.098l.048-.016a.694.694 0 0 1 .055-.017c.06-.022.12-.054.175-.082.054-.027.115-.049.17-.082.021-.01.048-.027.07-.038.11-.06.219-.126.317-.202.011-.011.022-.016.033-.027.098-.071.186-.148.273-.23.016-.016.033-.027.044-.044l.01-.01c.017-.017.033-.028.044-.044a3.43 3.43 0 0 0 .323-.366c.01-.017.022-.028.032-.044.208-.278.372-.595.487-.934 0-.016.01-.033.016-.05l12.794-38.987c.792-2.431 1.393-4.141 1.786-5.086.312-.738.814-1.426 1.497-2.054.104-.093.208-.186.317-.279.808-.666 1.967-1 3.442-1 1.07 0 2.08.268 2.999.803a6.087 6.087 0 0 1 2.19 2.136c.525.88.798 1.77.809 2.65a9.197 9.197 0 0 1-.246 2.087 20.343 20.343 0 0 1-.667 2.283c-.245.688-.491 1.399-.732 2.092l-.081.24c0 .017-.017.05-.033.094-.3.825-2.464 6.79-5.13 14.143-.404 1.109-.814 2.245-1.234 3.409l-5.758 15.886c-.044.12-.088.234-.126.35l-3.076 8.478c-.103.278-.196.535-.278.77-.05.13-.093.251-.131.366-.721 1.988-.727 2-.727 2.005a174.767 174.767 0 0 1-1.732 4.873c-.524 1.398-1.136 2.644-1.819 3.725-.054.088-.109.17-.164.257a8.156 8.156 0 0 1-.404.552c-.06.076-.12.153-.186.229a6.598 6.598 0 0 1-.327.366 9.018 9.018 0 0 1-1.983 1.546c-1.197.688-2.694 1.038-4.464 1.038-1.764 0-3.277-.344-4.484-1.022l.032.011zm61.729 66.008a19.122 19.122 0 0 1-.874 2.24c-.202.437-.426.868-.666 1.294-.093.164-.186.328-.284.492-.093.153-.181.3-.279.453a9.25 9.25 0 0 1-.268.399 14.917 14.917 0 0 1-.841 1.136c-.054.066-.104.132-.158.197-.055.071-.115.137-.175.208-.087.103-.18.213-.273.317-.006.005-.011.016-.022.021-.055.06-.115.121-.169.181-.055.054-.104.114-.159.169-.033.033-.06.066-.093.098-.027.028-.049.055-.076.082-.164.17-.333.339-.503.503l-.011.011c-.125.12-.256.24-.388.36l-.01.011c-.05.044-.093.088-.142.131-.093.088-.192.17-.29.252-.093.076-.18.158-.273.235a8.03 8.03 0 0 1-.322.256c-.028.022-.055.044-.088.066-.06.049-.115.098-.18.142-.066.049-.131.098-.197.142-.071.055-.147.109-.218.164l-.066.049c-.044.033-.082.066-.126.093-.016.011-.027.022-.043.033-.475.338-.973.661-1.486.972-.142.087-.284.169-.432.257-.022.011-.043.027-.065.038-.017.011-.033.016-.044.027l-.033.017c-.644.366-1.316.704-2.021 1.027-4.053 1.841-8.959 2.775-14.57 2.775-6.724 0-12.345-1.273-16.705-3.78a22.435 22.435 0 0 1-7.566-7.228c-1.928-2.983-2.917-5.905-2.944-8.691-.011-1.311.344-2.398 1.103-3.371.137-.175.279-.344.443-.513 1.032-1.065 2.387-1.606 4.015-1.606 1.333 0 2.382.393 3.305 1.234.727.661 1.366 1.552 1.945 2.71.191.388.377.803.557 1.251.923 2.245 1.94 4.157 3.01 5.681 1.109 1.573 2.671 2.885 4.649 3.901 1.977 1.01 4.572 1.524 7.719 1.524 4.326 0 7.894-1.027 10.609-3.054 0 0 .011-.005.016-.011.131-.098.251-.197.377-.295l.082-.065c.022-.017.044-.039.066-.055.027-.022.054-.049.081-.071.104-.087.203-.169.295-.257.017-.016.039-.033.055-.049.033-.033.071-.066.104-.098.087-.082.175-.164.262-.252l.148-.147a6.36 6.36 0 0 0 .251-.268 1.743 1.743 0 0 1 .131-.136l.082-.099c.071-.082.142-.169.213-.251.016-.022.038-.044.055-.066.071-.092.142-.185.213-.284.032-.049.071-.092.103-.142.006-.011.017-.021.022-.032.022-.033.044-.066.066-.093.011-.011.016-.028.027-.039.055-.081.115-.169.17-.256.065-.104.12-.202.18-.306.781-1.366 1.158-2.885 1.142-4.573-.022-2.485-.825-4.539-2.382-6.112-1.497-1.508-3.447-2.677-5.785-3.469-2.257-.76-5.305-1.585-9.058-2.437-4.95-1.152-9.15-2.513-12.488-4.048-3.267-1.508-5.9-3.578-7.823-6.167-1.906-2.562-2.89-5.807-2.928-9.642-.032-3.655.945-6.943 2.917-9.773 1.606-2.311 3.84-4.207 6.66-5.66a26.237 26.237 0 0 1 4.282-1.726c3.355-1.027 7.195-1.546 11.456-1.546 4.185 0 7.85.519 10.893 1.552 3.037 1.021 5.588 2.398 7.582 4.08 1.994 1.683 3.469 3.464 4.392 5.288.918 1.819 1.388 3.611 1.404 5.321 0 .158 0 .317-.01.47 0 .06-.011.12-.017.175-.011.093-.016.185-.027.278a3.103 3.103 0 0 1-.044.23c-.011.071-.022.142-.038.213-.017.082-.044.158-.066.24a2.405 2.405 0 0 1-.054.197c-.028.082-.06.164-.088.24-.022.06-.038.12-.065.18-.033.082-.077.164-.115.246-.027.055-.049.11-.076.164-.044.082-.088.164-.137.241-.033.054-.06.109-.093.163a5.092 5.092 0 0 1-.153.23c-.038.054-.071.115-.115.169-.016.022-.032.049-.049.071-.016.028-.038.055-.054.082-.028.038-.066.077-.093.115-.082.104-.164.213-.257.317-.005.011-.011.016-.022.027a5.46 5.46 0 0 1-.393.41 7.555 7.555 0 0 1-.432.371c-.043.033-.087.06-.131.088-.044.032-.087.06-.136.092-.022.017-.044.028-.066.044-.038.027-.076.055-.12.082-.077.044-.159.082-.235.126-.077.043-.153.087-.235.125a2.645 2.645 0 0 1-.289.11c-.072.027-.137.06-.208.082a4.547 4.547 0 0 1-.787.174h-.027c-.087.011-.169.028-.257.039-.093.011-.191.011-.284.011-.098 0-.191.016-.295.016-1.42 0-2.496-.339-3.201-1.005-.787-.749-1.672-2.011-2.622-3.759-1.339-2.698-2.961-4.845-4.813-6.364-1.917-1.573-4.96-2.371-9.046-2.371-3.786 0-6.89.853-9.222 2.524-1.355.973-2.327 2.076-2.917 3.289-.016.027-.027.06-.038.087l-.082.186c-.011.022-.016.038-.027.06-.028.066-.055.126-.077.191-.022.066-.049.126-.07.191-.017.055-.034.11-.056.159l-.032.098c0 .006 0 .011-.006.017l-.049.174-.065.268c-.017.066-.028.126-.044.191l-.05.284c-.01.066-.021.12-.027.186-.01.093-.021.186-.027.284v.044c0 .049-.01.098-.01.153-.012.158-.017.322-.012.486.017 1.562.448 2.879 1.322 4.026.83 1.087 1.972 2.032 3.398 2.803a22.404 22.404 0 0 0 4.201 1.764c1.371.41 3.65 1.016 6.769 1.797.005 0 .016 0 .021.006.497.114.995.235 1.48.355 3.371.825 6.436 1.715 9.184 2.666 3.119 1.081 5.812 2.403 7.992 3.933a16.231 16.231 0 0 1 5.069 5.736c1.213 2.305 1.847 5.184 1.88 8.555.021 2.272-.29 4.43-.94 6.457l.027-.011zm26.774-40.638l.459 47.636c.021 2.289-.388 4.086-1.213 5.348-.055.082-.109.164-.17.24a.497.497 0 0 1-.071.093 6.557 6.557 0 0 1-.251.301c-1.142 1.245-2.655 1.879-4.501 1.879-1.874 0-3.425-.639-4.605-1.901-1.197-1.279-1.82-3.284-1.841-5.955l-.459-47.636c-.017-1.944-1.623-3.529-3.578-3.529h-11.762c-.186-.47-.399-.939-.634-1.415-1.059-2.097-2.72-4.113-4.949-5.992-.268-.23-.552-.448-.836-.667.093-.125.197-.251.312-.371.109-.12.229-.235.36-.344 1.071-.924 2.693-1.388 4.824-1.388h44.915c2.246 0 3.923.481 4.982 1.426 1.049.939 1.568 2.147 1.585 3.687.016 1.535-.487 2.732-1.53 3.66-1.054.934-2.72 1.41-4.938 1.41h-12.592c-1.95 0-3.529 1.584-3.507 3.529v-.011zm76.408 34.623c-.093.295-.196.585-.295.874a5.239 5.239 0 0 1-.114.312c-.05.125-.093.256-.142.382-.028.077-.061.158-.088.235-.038.104-.082.208-.12.311-.077.197-.158.394-.24.585 0 0 0 .011-.006.016l-.115.279c-.114.268-.229.53-.355.792-.011.022-.016.044-.027.06-.131.279-.268.557-.404.83-.044.088-.088.17-.131.257-.039.071-.077.148-.115.219-.06.114-.12.235-.186.349-.054.099-.104.192-.158.284l-.033.06-.279.492a3.627 3.627 0 0 1-.153.257l-.18.295c-.082.131-.158.262-.24.393-.017.028-.033.055-.055.088-.191.3-.388.59-.584.879-.05.071-.099.148-.153.219a23.121 23.121 0 0 1-.629.863c-.213.284-.431.557-.655.83-.055.066-.109.137-.164.202-.055.066-.109.126-.158.186-.175.208-.35.415-.53.617-.273.306-.557.601-.842.891-.043.049-.092.093-.136.142-.12.12-.251.24-.377.36-.158.153-.311.306-.47.454l-.175.158a7.908 7.908 0 0 1-.229.208 26.65 26.65 0 0 1-.601.513s-.011.006-.016.011c-.279.23-.563.454-.853.672l-.196.148c-.23.169-.459.338-.694.502-.257.18-.519.361-.787.536-.12.076-.246.152-.366.229-.065.038-.125.082-.191.12-.126.077-.257.159-.388.235a29.179 29.179 0 0 1-4.097 2.027 32.495 32.495 0 0 1-5.086 1.584c-.142.033-.278.06-.42.093-.055.011-.115.027-.17.038-.284.06-.573.115-.863.169-.022 0-.044.011-.06.011-.186.033-.377.06-.563.093a7.987 7.987 0 0 1-.377.06c-.098.017-.202.028-.3.044-.219.033-.437.06-.661.087-.038 0-.071.011-.109.011l-.263.033-.606.066c-.131.011-.268.027-.399.038-.098.011-.202.016-.3.027-.104.011-.202.017-.306.028-.131.01-.268.021-.404.027-.213.016-.421.027-.634.038-.131.006-.257.016-.388.022l-.448.016c-.082 0-.169.006-.251.011-.115 0-.23.006-.344.011-.35.006-.705.011-1.06.011-.262 0-.519-.011-.781-.011-.235 0-.475 0-.71-.011-.093 0-.181 0-.274-.011a53.757 53.757 0 0 1-1.403-.071 4.327 4.327 0 0 1-.268-.022c-.104-.005-.202-.016-.306-.027-.372-.027-.748-.06-1.114-.098h-.006a36.027 36.027 0 0 1-1.65-.213 35.734 35.734 0 0 1-1.316-.219l-.246-.049c-.443-.082-.88-.175-1.317-.273h-.021c-.219-.049-.427-.109-.64-.164-.218-.055-.437-.104-.65-.164-.082-.022-.158-.044-.24-.065-.027-.006-.055-.017-.082-.022-.12-.033-.246-.071-.366-.104a28.475 28.475 0 0 1-.765-.235c-.093-.027-.18-.06-.273-.087a.61.61 0 0 1-.109-.039 34.83 34.83 0 0 1-1.885-.688c-4.212-1.704-7.779-4.135-10.609-7.227-2.835-3.098-5.02-6.883-6.501-11.254a27.991 27.991 0 0 1-.295-.917c-.032-.099-.06-.203-.092-.301-.066-.213-.126-.42-.186-.634-.027-.092-.049-.185-.077-.278-.06-.219-.12-.432-.174-.65-.945-3.617-1.448-7.49-1.486-11.543-.049-5.234.666-10.095 2.125-14.449a33.48 33.48 0 0 1 1.895-4.545c.241-.47.487-.924.743-1.377.213-.372.432-.743.661-1.104 1.393-.098 2.606-.387 3.628-.863.016-.005.032-.016.049-.022a6.876 6.876 0 0 0 1.584-1.027c.109-.098.219-.196.317-.3.033-.033.06-.066.093-.093.071-.076.142-.147.207-.229l.093-.11c.071-.082.137-.169.202-.251.011-.011.017-.022.028-.033.011-.016.027-.032.038-.049.082-.115.164-.229.24-.344.006-.011.017-.022.022-.038.006-.011.016-.022.022-.033a6.582 6.582 0 0 0 .246-.432c.054-.103.104-.207.153-.316.011-.028.027-.055.038-.088.06-.136.109-.273.158-.41l.033-.098c.038-.109.071-.224.104-.333l.033-.12v-.011c.032-.126.06-.251.087-.383 0-.021.011-.043.017-.065.027-.148.049-.301.071-.459 0-.044.01-.082.016-.126l.033-.36c0-.044.005-.093.011-.137.005-.164.011-.322.011-.491 0-.224-.011-.448-.033-.667a29.257 29.257 0 0 1 5.965-3.196 32.8 32.8 0 0 1 5.266-1.573c2.71-.574 5.627-.863 8.719-.863 5.02 0 9.582.732 13.624 2.174 1.65.59 3.218 1.289 4.687 2.12a30.34 30.34 0 0 1 1.601.967 28.033 28.033 0 0 1 7.26 6.752 29.463 29.463 0 0 1 2.742 4.43 30.438 30.438 0 0 1 2.027 5.173c.825 2.797 1.36 5.9 1.612 9.353.098 1.322.153 2.698.164 4.13v.983c-.039 4.889-.716 9.401-2.016 13.433l.005-.033zm56.59 17.536l-.066.153a2.73 2.73 0 0 1-.054.104c0 .011-.011.016-.017.027a2.168 2.168 0 0 1-.087.164c-.022.044-.049.082-.077.126a2.64 2.64 0 0 1-.103.174c-.487.754-1.159 1.361-1.994 1.819-.039.022-.077.044-.121.066-.901.464-1.977.699-3.184.699-.159 0-.317-.005-.47-.016-.044 0-.093-.006-.137-.011a3.237 3.237 0 0 1-.333-.033c-.044 0-.087-.011-.131-.016-.044-.006-.093-.017-.137-.022-.098-.016-.202-.027-.3-.049-.044-.006-.082-.022-.12-.028-.11-.021-.213-.049-.323-.076a5.265 5.265 0 0 1-.415-.131c-.016 0-.033-.011-.049-.017-.071-.027-.142-.06-.213-.087l-.202-.082c-.082-.038-.159-.082-.241-.12.017.011.039.016.055.027-.071-.033-.142-.071-.213-.109-.049-.027-.093-.06-.142-.087-.076-.05-.158-.093-.229-.142a10.186 10.186 0 0 1-2.623-2.634c-.786-1.13-1.83-2.764-3.19-4.987l-5.741-9.369c-1.983-3.305-3.786-5.894-5.37-7.708-.066-.076-.131-.153-.197-.224a.137.137 0 0 0-.038-.038c-.115-.126-.23-.246-.344-.366a15.61 15.61 0 0 0-.596-.606c-.087-.082-.169-.17-.257-.246a.957.957 0 0 0-.081-.077c-.05-.044-.099-.082-.143-.125-.005 0-.01-.011-.016-.017-.12-.109-.24-.213-.36-.317-.044-.038-.082-.076-.126-.109a20.048 20.048 0 0 0-.645-.513c-.103-.077-.207-.148-.311-.219.005 0 .016.011.022.016a9.551 9.551 0 0 0-.366-.256c-.099-.066-.191-.121-.29-.181.017.011.033.017.044.028-.093-.06-.186-.115-.284-.175-.044-.027-.082-.055-.126-.077-.098-.06-.202-.103-.3-.158.033.016.071.038.104.055-.148-.082-.295-.164-.443-.235 0 0-.011 0-.016-.006-.099-.049-.197-.087-.295-.131.032.017.065.027.093.044-.153-.071-.306-.142-.459-.202-.148-.06-.306-.115-.459-.17-1.655-.584-3.688-.879-6.053-.879h-2.125a3.53 3.53 0 0 0-2.333.885c-.011.005-.016.016-.022.022-.032.027-.06.054-.092.082-.186.18-.356.382-.498.606l-.081.137-.066.109c0 .011-.011.022-.016.027a2.468 2.468 0 0 0-.115.246l-.033.082c-.033.076-.06.153-.082.229-.005.022-.016.044-.022.066a6.39 6.39 0 0 0-.076.295c0 .027-.011.049-.011.076a1.993 1.993 0 0 0-.033.241c0 .033-.005.06-.011.093-.011.103-.016.207-.011.316v.006l.186 19.497c.022 2.316-.382 4.113-1.207 5.364-.017.028-.039.055-.06.082l-.115.164c-.022.033-.044.06-.071.093 0 0-.038.044-.055.066-.016.016-.027.032-.043.049-.05.06-.099.12-.153.18-.924.994-2.022 1.568-3.382 1.77a7.867 7.867 0 0 1-1.163.087c-2.022 0-3.606-.65-4.704-1.928a4.987 4.987 0 0 1-.453-.623 4.595 4.595 0 0 1-.23-.393c-.027-.055-.06-.109-.087-.164a8.082 8.082 0 0 1-.268-.585 8.36 8.36 0 0 1-.366-1.201 11.622 11.622 0 0 1-.197-1.033 3.671 3.671 0 0 1-.027-.235 16.552 16.552 0 0 1-.06-.59l-.016-.251a18.427 18.427 0 0 1-.033-.836v-.022l-.033-7.713c.153-.317.306-.639.448-.962a37.827 37.827 0 0 0 1.404-3.649c1.371-4.239 2.081-8.97 2.12-14.078v-1.027c0-.497-.017-.983-.028-1.469 0-.126-.011-.257-.016-.382V153.727c-.011-.328-.022-.656-.038-.973a275.51 275.51 0 0 0-.033-.546c-.017-.284-.033-.568-.055-.847 0-.049-.005-.093-.011-.142-.011-.147-.027-.295-.038-.437l-.066-.781c-.016-.197-.043-.388-.065-.585 0-.038-.011-.082-.011-.12a3.985 3.985 0 0 1-.027-.268c-.011-.12-.028-.234-.039-.355-.021-.196-.054-.387-.076-.584 0-.022 0-.038-.005-.06-.028-.219-.055-.437-.088-.65-.027-.197-.06-.388-.093-.585-.038-.229-.071-.453-.109-.677a23.165 23.165 0 0 0-.109-.574c-.044-.24-.088-.481-.137-.715v-.017c-.054-.273-.12-.541-.18-.808-.033-.137-.06-.273-.093-.41a33.844 33.844 0 0 0-.273-1.076c-.006-.028-.011-.055-.022-.082a35.34 35.34 0 0 0-.322-1.125c-.039-.121-.077-.23-.11-.35a28.484 28.484 0 0 0-.24-.749c-.049-.142-.098-.278-.147-.415-.077-.218-.153-.437-.235-.65a16.205 16.205 0 0 0-.175-.442 21.096 21.096 0 0 0-.235-.596c-.066-.153-.131-.3-.197-.448l-.246-.562a31.836 31.836 0 0 0-.213-.448c-.071-.148-.142-.301-.213-.448-.027-.06-.054-.12-.087-.175l-.109-6.375c0-.257 0-.503.011-.743v-.148c.011-.235.021-.458.043-.682 0-.039.006-.077.011-.115l.049-.426c.006-.055.011-.115.022-.17 0-.027.006-.06.011-.087.011-.071.028-.137.038-.202.022-.131.044-.268.071-.399.011-.044.017-.082.028-.126.043-.18.087-.36.136-.529 0-.011 0-.022.006-.033 0-.017.011-.033.016-.049a5.24 5.24 0 0 1 .17-.487 6.065 6.065 0 0 1 .245-.568c.017-.033.033-.06.044-.087.038-.071.077-.137.115-.208.038-.071.076-.142.115-.207.191-.301.404-.574.639-.814.601-.607 1.415-1.066 2.436-1.371 1.016-.306 2.24-.459 3.655-.459h22.982c3.125 0 5.834.131 8.052.398 1.885.224 3.627.656 5.25 1.301.207.082.415.169.617.262a17.322 17.322 0 0 1 5.654 3.791c.934.94 1.743 1.978 2.431 3.103.503.825.94 1.688 1.3 2.6a19.23 19.23 0 0 1 1.29 5.889c.021.344.032.683.038 1.033 0 .311 0 .617-.011.917 0 .039 0 .071-.006.11a9.62 9.62 0 0 1-.032.562l-.017.246c-.016.208-.038.421-.06.623v.033a19.486 19.486 0 0 1-.278 1.726c-.011.038-.017.076-.028.115a9.63 9.63 0 0 1-.131.54l-.033.126c0 .022-.011.044-.016.06-.066.235-.131.47-.202.705-.011.038-.027.076-.038.12v.016c-.061.192-.126.377-.192.563-.027.071-.054.148-.082.219-.06.164-.125.327-.191.486-.027.065-.054.136-.082.202-.093.218-.191.437-.295.656a15.73 15.73 0 0 1-2.682 3.9c-1.857 1.983-4.441 3.611-7.664 4.846a3.616 3.616 0 0 0-.798.431 3.474 3.474 0 0 0-1.398 2.229 3.477 3.477 0 0 0 .12 1.661 3.59 3.59 0 0 0 1.038 1.611c.213.191.431.383.644.585.235.218.47.442.7.672.442.442.879.906 1.311 1.387a60.346 60.346 0 0 1 6.118 8.167c1.792 2.879 3.212 5.507 4.212 7.817.819 1.891 1.196 3.049 1.36 3.759.093.399.12.655.126.819 0 .525-.115 1.055-.344 1.59h-.022zm48.4-58.529a8.138 8.138 0 0 1-.305.41c0 .005-.011.011-.017.016-.104.12-.218.241-.339.35-.027.027-.065.049-.092.076-.951.814-2.437 1.229-4.431 1.229h-29.007a3.495 3.495 0 0 0-2.945 1.601 2.282 2.282 0 0 0-.147.246c0 .011-.011.016-.017.027a5.558 5.558 0 0 0-.12.246l-.033.082c-.032.076-.06.153-.082.229-.005.022-.016.044-.021.066a1.29 1.29 0 0 0-.039.148c-.011.049-.027.098-.038.147 0 0-.011.049-.011.076a1.993 1.993 0 0 0-.033.241c0 .033-.005.06-.011.093 0 .049 0 .098-.005.153 0 .054-.006.109-.006.164l.11 11.428c.016 1.945 1.622 3.529 3.578 3.529h26.484c1.961 0 3.43.42 4.359 1.256.645.579 1.076 1.36 1.093 3.283 0 .153 0 .306-.017.454a.891.891 0 0 1-.011.12 3.55 3.55 0 0 1-.043.344v.027c0 .022-.006.044-.011.066a4.741 4.741 0 0 1-.088.404.414.414 0 0 1-.027.082c-.033.104-.066.208-.104.312l-.038.103a3.105 3.105 0 0 1-.159.345v.016a6.06 6.06 0 0 1-.191.322l-.032.055a4.064 4.064 0 0 1-.585.688c-.896.858-2.36 1.295-4.343 1.295h-26.484a3.507 3.507 0 0 0-2.922 1.557c-.011.011-.017.027-.028.043a2.457 2.457 0 0 0-.147.246c0 .011-.006.017-.011.028a3.41 3.41 0 0 0-.12.251l-.033.082c-.033.076-.06.153-.082.229-.005.022-.016.044-.022.066-.016.054-.027.115-.044.169l-.032.131c0 .022-.011.049-.011.071a1.729 1.729 0 0 0-.033.246c0 .033-.006.06-.011.093-.011.104-.016.213-.011.322l.137 14.127c.016 1.945 1.622 3.529 3.578 3.529h30.1c2.027 0 3.556.454 4.545 1.35.989.89 1.481 2.059 1.491 3.567 0 .164 0 .317-.016.47v.021c0 .033 0 .066-.005.099a4.283 4.283 0 0 1-.05.382.347.347 0 0 1-.01.071 5.733 5.733 0 0 1-.099.421l-.033.098a5.065 5.065 0 0 1-.109.322.042.042 0 0 1-.011.028c-.005.022-.016.038-.022.06a4.635 4.635 0 0 1-.174.371s0 .006-.006.011l-.033.06a4.65 4.65 0 0 1-.224.355s-.005.011-.011.017a3.438 3.438 0 0 1-.256.322c-.017.022-.039.044-.055.066a8.887 8.887 0 0 1-.306.311 4.22 4.22 0 0 1-.836.59c-.934.508-2.168.765-3.687.765h-38.398c-1.787 0-3.256-.241-4.409-.71.066-.121.126-.235.18-.355 0 0 0-.011.006-.017.41-.868.606-1.759.601-2.655-.011-1.092-.557-2.873-1.672-5.435-.721-1.661-1.644-3.469-2.753-5.408l-.093-23.944c2.098-3.147 3.174-6.932 3.13-11.111-.027-2.694-.524-5.288-1.48-7.709a19.066 19.066 0 0 0-1.732-3.37c.027-1.213.175-2.251.448-3.141.022-.077.049-.148.071-.219.066-.196.142-.388.219-.568.016-.033.027-.071.043-.109.06-.131.126-.257.191-.383l.066-.114.131-.213c.017-.028.033-.06.055-.088.497-.726 1.147-1.262 2.01-1.655 1.196-.546 2.704-.814 4.616-.814h37.3c2.054 0 3.589.437 4.545 1.306.956.863 1.426 1.966 1.443 3.381.011 1.044-.224 1.918-.711 2.65v.005zm33.406-78.785c-.579 1.213-1.563 2.857-3.005 5.042l-16.754 25.965a3.496 3.496 0 0 0-.558 1.929l.192 20.015c.021 2.235-.388 3.999-1.213 5.261-.066.098-.131.191-.197.284a5.25 5.25 0 0 1-.338.41c-1.17 1.262-2.705 1.906-4.546 1.906-1.873 0-3.419-.633-4.583-1.879-1.18-1.262-1.792-3.272-1.814-5.982l-.191-20.02a3.523 3.523 0 0 0-.584-1.913l-16.848-25.62c-.327-.514-.633-1-.917-1.46 2.13-.185 3.829-.819 5.047-1.9 1.524-1.35 2.284-3.136 2.262-5.31-.011-1-.18-1.917-.514-2.748a6.63 6.63 0 0 0-.764-1.41c.087.066.163.137.245.208.082.071.159.148.23.23.972 1.049 2.48 3.201 4.479 6.408l10.811 17.208a3.559 3.559 0 0 0 3.032 1.677 3.49 3.49 0 0 0 2.994-1.666l10.609-17.23c.781-1.29 1.436-2.382 1.966-3.267a19.351 19.351 0 0 1 1.699-2.398c.579-.694 1.224-1.235 1.929-1.6.682-.356 1.546-.536 2.567-.536 1.617 0 2.879.486 3.961 1.524 1.065 1.021 1.584 2.163 1.6 3.49.011 1.115-.256 2.257-.797 3.382z"/><path d="M147.004 70.888c.59.42 1.306.677 2.082.677h9.833a48.435 48.435 0 0 0 3.583-.125 32.21 32.21 0 0 0 3.458-.42c.59-.105 1.158-.225 1.694-.361.393-.099.77-.219 1.136-.34 1.617-.545 2.955-1.321 3.988-2.32a7.04 7.04 0 0 0 1.229-1.562c.016-.034.038-.061.06-.094.027-.05.06-.093.088-.148 0-.005.005-.016.01-.021l.017-.033c.109-.208.213-.42.306-.645v-.005c.065-.159.12-.328.18-.492.022-.07.055-.136.076-.213l.066-.235c.044-.147.082-.3.12-.453 0-.022.011-.044.017-.066a.69.69 0 0 1 .021-.098c.011-.066.028-.126.039-.191.022-.115.038-.23.06-.345.011-.06.022-.114.027-.174.017-.099.027-.202.044-.3.022-.192.038-.383.054-.58 0-.07.017-.13.017-.202.016-.311.027-.634.022-.961 0-.257-.011-.514-.033-.765 0-.038-.011-.071-.011-.104a7.75 7.75 0 0 0-.071-.634c-.005-.043-.016-.087-.022-.125-.033-.202-.065-.4-.109-.596l-.033-.12c0-.022-.011-.044-.016-.06-.082-.328-.175-.65-.284-.962-.028-.076-.05-.152-.077-.229-.022-.06-.049-.115-.071-.17-.011-.027-.022-.048-.033-.07 0-.011-.005-.017-.011-.028-.054-.13-.103-.256-.163-.387-.022-.05-.05-.093-.071-.137-.028-.05-.05-.098-.077-.147a9.867 9.867 0 0 0-.169-.323c0-.005-.011-.016-.011-.027-.022-.044-.055-.082-.077-.126-.032-.06-.071-.114-.109-.175-.066-.103-.126-.207-.191-.311 0 0-.006-.01-.011-.01a8.684 8.684 0 0 0-.546-.711c-.033-.038-.066-.082-.099-.12-.038-.044-.076-.093-.114-.137a11.266 11.266 0 0 0-.612-.633 10.18 10.18 0 0 0-2.524-1.7.857.857 0 0 0-.126-.054c-.136-.06-.267-.126-.409-.186a4.755 4.755 0 0 0-.334-.126c-.038-.01-.076-.027-.114-.038l-.246-.082c-.049-.016-.099-.027-.148-.043a4.136 4.136 0 0 1-.246-.071c-.054-.017-.109-.028-.169-.044a4.577 4.577 0 0 0-.262-.06c-.06-.011-.12-.028-.18-.038-.093-.022-.192-.039-.284-.06l-.186-.033c-.109-.022-.224-.038-.339-.06-.055-.011-.109-.017-.164-.028-.169-.027-.344-.049-.524-.076a7.93 7.93 0 0 0-.377-.044 30.935 30.935 0 0 0-.874-.093h-.011a29.132 29.132 0 0 0-.765-.06l-.268-.016a174.63 174.63 0 0 0-.89-.05c-.202-.01-.404-.016-.612-.027-.098 0-.197-.005-.3-.01a47.065 47.065 0 0 0-.913-.023h-.038c-.573-.01-1.18-.016-1.814-.016h-10.21-.01c-.137 0-.274.011-.405.027h-.011c-.016 0-.027 0-.043.006-.022 0-.044.005-.066.01a4.394 4.394 0 0 0-.284.056c-.016 0-.033.01-.049.01-.027.006-.055.011-.082.022-.022.006-.049.017-.071.022-.071.022-.148.044-.219.071-.032.011-.065.022-.092.033-.121.05-.241.11-.356.17-.016.01-.032.016-.049.026 0 0-.005 0-.011.006-.005 0-.011.006-.016.01a2.54 2.54 0 0 0-.279.181l-.071.055s-.011.005-.011.01c0 0-.011.012-.016.012-.071.054-.137.109-.197.164l-.011.01-.005.006c-.022.022-.049.044-.071.066-.016.016-.033.027-.044.043a3.479 3.479 0 0 0-1.016 2.497l.131 13.46a3.542 3.542 0 0 0 1.497 2.852l-.022.027zm114.966 72.88c.011-.055.017-.115.028-.17.032-.169.065-.344.087-.519.016-.098.027-.202.044-.3.021-.191.038-.382.054-.579 0-.033 0-.066.006-.098 0-.06.011-.115.011-.175.016-.29.021-.585.021-.891 0-.224-.01-.442-.027-.661v-.098c-.005-.071-.016-.142-.022-.213l-.032-.317a9.64 9.64 0 0 0-1.164-3.562c0-.011-.011-.016-.016-.027-.061-.109-.132-.213-.197-.317-.06-.098-.115-.191-.18-.289-.11-.159-.219-.306-.334-.459-.027-.038-.054-.082-.087-.115-.044-.06-.098-.109-.142-.169-.027-.033-.06-.066-.087-.104a9.784 9.784 0 0 0-2.879-2.278c-.077-.038-.148-.082-.23-.12-.087-.044-.18-.082-.273-.126-.137-.065-.273-.131-.41-.186-.3-.125-.639-.24-1.016-.338a12.528 12.528 0 0 0-1.267-.273c-1.852-.323-4.387-.481-7.763-.481H235.88a3.489 3.489 0 0 0-3.065 1.792c-.011.016-.022.032-.027.049 0 .011-.011.022-.017.027 0 0 0 .011-.005.011-.038.077-.077.153-.109.235l-.033.071v.011c0 .011-.006.022-.011.033a.395.395 0 0 0-.016.054s-.017.044-.022.066a1.354 1.354 0 0 0-.033.087c-.006.022-.016.044-.022.066-.027.098-.055.196-.076.3 0 .028-.011.049-.011.077a1.729 1.729 0 0 0-.033.246v.027c0 .022 0 .044-.006.065-.011.104-.016.213-.011.317l.132 13.461a3.543 3.543 0 0 0 1.496 2.851 3.57 3.57 0 0 0 2.082.672h9.833c3.441 0 6.38-.3 8.735-.901.513-.131.994-.284 1.459-.454.748-.273 1.431-.6 2.048-.977a9.02 9.02 0 0 0 1.617-1.235 7.143 7.143 0 0 0 1.016-1.213c.071-.109.137-.224.202-.333a8.284 8.284 0 0 0 .978-2.529l-.011-.011zM95.25 83.048a3.589 3.589 0 0 0 2.644 1.164h12.783a3.507 3.507 0 0 0 2.889-1.508c.055-.082.104-.163.153-.25.033-.056.066-.11.093-.17.033-.066.06-.137.093-.202.022-.06.049-.115.071-.175.027-.071.044-.142.066-.219a.664.664 0 0 0 .027-.103c.005-.022.016-.05.022-.072.016-.076.027-.153.044-.229 0-.027.01-.055.01-.087l.017-.093c.011-.077.011-.159.016-.235 0-.055.006-.104.006-.159v-.016-.055c0-.065-.006-.13-.011-.19 0-.05 0-.1-.011-.148a3.478 3.478 0 0 0-.202-.83l-6.616-17.58a3.322 3.322 0 0 0-.475-.863l-.055-.071a4.623 4.623 0 0 0-.273-.317c-.005-.005-.016-.011-.022-.022a2.736 2.736 0 0 0-.306-.268c-.016-.01-.032-.027-.049-.038a3.167 3.167 0 0 0-.36-.24c-.011 0-.017-.011-.028-.017a4.26 4.26 0 0 0-.393-.196s-.011 0-.011-.006c-.016-.005-.038-.016-.054-.022a3.9 3.9 0 0 0-.377-.125c-.011 0-.022 0-.033-.006a4.656 4.656 0 0 0-.399-.082c-.027 0-.049-.005-.076-.01-.148-.017-.295-.033-.448-.033h-.006a3.5 3.5 0 0 0-3.299 2.338l-6.168 17.585a3.335 3.335 0 0 0-.175.786c0 .017 0 .033-.005.055a3.522 3.522 0 0 0 .923 2.71h-.005zm113.331 69.433a46.867 46.867 0 0 0-.196-2.3c-.361-3.19-1.038-5.834-2.065-8.118-.77-1.704-1.672-3.212-2.71-4.539a17.962 17.962 0 0 0-1.917-2.092 17.928 17.928 0 0 0-3.502-2.552c-.071-.043-.147-.082-.218-.12l-.088-.049c-2.961-1.606-6.227-2.393-9.942-2.393-.699 0-1.388.033-2.065.099h-.022c-.055 0-.115.011-.169.016-.12.011-.241.033-.366.044-.148.016-.29.033-.437.054-.066.011-.131.017-.192.028-.158.022-.316.054-.475.082-.142.027-.289.049-.431.076-.033.006-.066.017-.099.022-.032.005-.071.016-.104.022a15.636 15.636 0 0 0-.748.175l-.197.049a16.667 16.667 0 0 0-1.005.295c-.246.082-.491.164-.732.257h-.005c-.071.027-.148.054-.219.082-.278.109-.557.218-.836.344a17.35 17.35 0 0 0-.912.437c-.12.06-.235.131-.349.191-.181.098-.361.191-.536.295-.087.049-.169.104-.251.158-.033.022-.066.044-.104.066-.169.104-.333.202-.497.311-.104.071-.208.148-.311.219l-.055.038c-.016.011-.027.022-.038.027-.137.099-.279.192-.415.295l-.006.006-.147.114a18.171 18.171 0 0 0-3.42 3.458l-.033.05c-.18.245-.355.491-.53.748l-.049.071c-.016.027-.033.049-.049.077a27.29 27.29 0 0 0-.492.786c-.011.022-.027.044-.038.066a18.14 18.14 0 0 0-.475.863c0 .011-.011.016-.011.027a3.714 3.714 0 0 0-.109.219c-.055.103-.104.213-.153.317-.066.136-.137.267-.203.409-.032.077-.071.148-.103.224a24.732 24.732 0 0 0-.492 1.158c-.093.23-.18.465-.262.7a.968.968 0 0 0-.044.12c-.016.038-.027.082-.044.12-.022.055-.038.109-.06.164-.033.087-.06.18-.087.268-.088.262-.18.518-.262.786-.984 3.196-1.464 6.834-1.426 10.8.038 3.775.535 7.249 1.464 10.352.055.191.109.383.169.568 1.055 3.267 2.557 6.026 4.452 8.189a20.544 20.544 0 0 0 2.672 2.546 18.077 18.077 0 0 0 3.911 2.354c2.453 1.082 5.173 1.623 8.085 1.623 3.338 0 6.293-.754 9.232-2.36.208-.115.41-.23.618-.35.054-.033.109-.06.164-.093.076-.049.152-.098.234-.147 3.01-1.868 5.43-4.725 7.195-8.5.787-1.677 1.393-3.535 1.83-5.561.311-1.448.53-2.978.661-4.595.027-.327.049-.661.066-.994v-.06c.016-.306.032-.612.043-.923.011-.333.017-.678.022-1.016v-1.038c0-.361-.011-.716-.016-1.066a57.373 57.373 0 0 0-.088-2.026l-.011.027zM353.188 41.903c-1.021 0-1.884.18-2.567.535-.705.366-1.349.907-1.928 1.6a19.252 19.252 0 0 0-1.699 2.399c-.53.885-1.186 1.977-1.967 3.267l-10.609 17.23a3.482 3.482 0 0 1-2.993 1.666 3.558 3.558 0 0 1-3.032-1.678l-10.811-17.208c-2-3.2-3.507-5.359-4.48-6.407a4.548 4.548 0 0 0-.229-.23 4.7 4.7 0 0 0-.246-.207c.311.437.568.906.765 1.409.333.836.502 1.753.513 2.748.022 2.174-.743 3.96-2.261 5.31-1.219 1.081-2.918 1.715-5.048 1.9.284.46.59.946.918 1.46l16.847 25.62c.377.574.579 1.235.585 1.912l.191 20.021c.027 2.71.639 4.72 1.813 5.982 1.164 1.246 2.705 1.879 4.584 1.879 1.846 0 3.376-.639 4.545-1.906.093-.099.18-.208.268-.317.021-.033.049-.06.071-.093a3.34 3.34 0 0 0 .196-.284c.825-1.267 1.235-3.027 1.213-5.261l-.191-20.016a3.495 3.495 0 0 1 .557-1.928l16.754-25.965c1.443-2.185 2.426-3.83 3.005-5.042.541-1.125.809-2.267.798-3.382-.011-1.327-.536-2.469-1.601-3.49-1.087-1.044-2.344-1.524-3.961-1.524z"/><path d="M261.768 46.595c.022 2.065-.678 3.764-2.071 5.048l-.01.01c-.022.017-.044.034-.066.055-.131.12-.268.235-.415.34.349.026.721.043 1.109.043h12.592c1.95 0 3.556 1.584 3.578 3.529l.459 47.636c.027 2.676.644 4.681 1.841 5.954 1.18 1.262 2.726 1.901 4.605 1.901 1.846 0 3.359-.633 4.501-1.879.088-.093.169-.197.251-.3.022-.033.05-.061.071-.093.061-.077.115-.159.17-.241.83-1.262 1.234-3.053 1.213-5.348l-.459-47.636a3.502 3.502 0 0 1 3.507-3.529h12.592c2.218 0 3.878-.475 4.938-1.41 1.043-.922 1.546-2.119 1.53-3.66-.017-1.54-.536-2.747-1.585-3.687-1.054-.945-2.731-1.425-4.982-1.425h-45.205c1.202 1.24 1.819 2.808 1.836 4.681v.011z"/><path d="M258.54 49.654c.038-.044.065-.087.098-.125.071-.093.142-.18.208-.279.054-.087.109-.17.158-.257.011-.022.022-.038.033-.054.065-.12.12-.24.169-.366a.501.501 0 0 1 .038-.093 5.04 5.04 0 0 0 .137-.415c.038-.137.065-.274.093-.416 0-.027.005-.054.011-.076.022-.12.032-.246.043-.372 0-.038.006-.081.011-.12.011-.153.017-.311.017-.47-.011-1.414-.486-2.518-1.442-3.381-.962-.863-2.492-1.306-4.551-1.306h-37.3c-1.912 0-3.42.263-4.616.814-.131.06-.257.126-.377.191-.038.022-.071.044-.11.066-.081.05-.163.098-.245.153-.039.027-.077.05-.115.076-.044.028-.082.06-.126.093-.24.18-.459.377-.655.596-.033.033-.066.07-.099.104a1.883 1.883 0 0 0-.163.208c-.219.289-.41.605-.574.966a6.629 6.629 0 0 0-.355.95c-.306 1.022-.448 2.24-.432 3.688l.503 52.197c.027 2.825.655 4.873 1.874 6.086 1.212 1.213 3.277 1.825 6.145 1.825h38.399c1.518 0 2.753-.257 3.687-.765.311-.17.59-.366.836-.59.109-.099.207-.202.306-.312.016-.021.038-.043.054-.06.093-.103.175-.213.257-.322.016-.022.027-.044.044-.06.519-.754.776-1.655.765-2.721-.017-1.507-.503-2.676-1.492-3.572-.994-.896-2.518-1.35-4.545-1.35h-30.1c-1.95 0-3.562-1.584-3.578-3.529l-.137-14.126c0-.11 0-.219.011-.323 0-.032.006-.06.011-.093.011-.082.022-.163.038-.246a2.669 2.669 0 0 1 .088-.371c.005-.022.016-.044.022-.06.027-.076.054-.158.082-.235 0-.005 0-.01.005-.022.022-.054.049-.104.071-.158.022-.055.049-.104.076-.159 0-.005.006-.016.011-.022a.467.467 0 0 0 .033-.054c.186-.333.426-.634.71-.885.066-.06.137-.12.208-.175.016-.01.027-.022.044-.033.229-.169.48-.317.754-.431.016-.006.038-.017.06-.022.398-.159.83-.246 1.289-.246h26.484c1.988 0 3.452-.437 4.343-1.295a4.29 4.29 0 0 0 .584-.688c.011-.016.022-.038.033-.055.12-.185.224-.376.311-.579.022-.049.049-.098.071-.153.142-.366.235-.764.279-1.19.005-.077.016-.148.022-.224.011-.148.016-.3.016-.46-.011-1.381-.47-2.452-1.393-3.282-.929-.836-2.393-1.257-4.354-1.257h-26.484c-1.95 0-3.561-1.584-3.578-3.529l-.109-11.428c0-.11 0-.219.011-.322a4.177 4.177 0 0 1 .049-.339 2.9 2.9 0 0 1 .087-.371c.006-.023.017-.039.022-.06l.082-.236.033-.076a3.705 3.705 0 0 1 .738-1.093 3.505 3.505 0 0 1 2.496-1.038h29.008c1.764 0 3.135-.327 4.086-.961.158-.104.306-.219.437-.339.131-.12.246-.246.36-.371l-.021.005zm-60.758-8.926c-1.868 0-3.337.623-4.496 1.901-1.158 1.278-1.731 3.267-1.709 5.91l.524 54.711c.027 2.644.65 4.644 1.846 5.938 1.197 1.295 2.672 1.923 4.507 1.923 1.956 0 3.425-.601 4.616-1.901.011-.011.022-.027.033-.038 1.147-1.278 1.721-3.267 1.694-5.916l-.525-54.71a14.81 14.81 0 0 0-.131-1.88 9.557 9.557 0 0 0-.147-.841c-.295-1.35-.814-2.426-1.563-3.212-1.213-1.284-2.693-1.88-4.654-1.88l.005-.005zm22.988 83.669a4.922 4.922 0 0 0-.273.497 9.96 9.96 0 0 0-.208.464 10.58 10.58 0 0 0-.208.585c0 .016-.011.033-.016.049-.055.18-.098.366-.142.563-.011.043-.016.082-.027.125a9.861 9.861 0 0 0-.11.601c0 .028-.005.06-.011.088-.027.191-.049.393-.071.595 0 .038-.01.077-.01.115-.022.218-.033.448-.044.683v.147c-.006.241-.011.486-.011.743l.109 6.375c.027.06.055.121.088.175.071.148.142.295.213.448.071.148.142.295.213.448.082.186.164.372.246.563l.196.448c.082.196.159.398.235.595.06.148.12.295.175.443.082.213.158.431.235.65.049.136.098.273.147.415.082.246.164.497.241.748.038.115.076.23.109.35.115.371.218.748.322 1.125.006.028.011.055.022.082.093.355.186.71.273 1.076.033.137.06.274.093.41l.18.809v.016c.049.235.093.475.137.716.038.191.076.382.109.573.038.224.077.454.109.678.033.196.066.387.093.584l.099.71c.027.197.054.388.076.585l.082.743.066.584c.027.257.043.519.065.781l.049.58c.022.278.039.562.055.846l.033.547c.016.322.027.65.038.972l.016.453c.017.481.022.973.028 1.464v1.027c-.039 5.108-.749 9.839-2.12 14.078a35.49 35.49 0 0 1-.983 2.666 32.455 32.455 0 0 1-.869 1.945l.033 7.713c.011.984.098 1.879.262 2.683.109.535.257 1.032.437 1.485a6.1 6.1 0 0 0 1.038 1.759c1.104 1.279 2.688 1.929 4.704 1.929.409 0 .797-.033 1.163-.088 1.36-.202 2.459-.77 3.382-1.77.054-.054.104-.12.153-.18l.098-.115c.022-.032.049-.06.071-.092.038-.05.071-.104.109-.153.022-.033.044-.06.066-.093.825-1.257 1.229-3.054 1.207-5.365l-.186-19.497v-.005c0-.104 0-.213.011-.317 0-.033.006-.06.011-.093l.033-.24c0-.027.011-.049.011-.077.022-.098.044-.202.076-.295.006-.021.017-.043.022-.065a21.1 21.1 0 0 0 .082-.23l.033-.082.115-.245c0-.011.011-.022.016-.028a3.78 3.78 0 0 1 .645-.852c.027-.027.06-.055.093-.082l.021-.022a3.495 3.495 0 0 1 2.333-.885h2.125c2.366 0 4.398.301 6.053.88.153.054.311.109.459.169.12.049.246.109.366.164.098.044.196.082.295.131.12.06.235.126.355.186.098.055.202.104.3.158.121.071.241.148.361.224.098.06.191.115.289.181.115.076.23.158.345.24.103.071.207.142.311.218.137.104.273.214.404.323.082.065.164.125.241.191.169.142.333.29.497.442.049.044.098.082.142.126.109.104.218.213.333.322.202.197.399.399.601.612.115.12.229.241.344.366.011.017.027.028.038.044.066.071.131.147.197.224 1.584 1.814 3.387 4.408 5.37 7.708l5.741 9.369c1.366 2.223 2.409 3.857 3.191 4.987a10.256 10.256 0 0 0 2.622 2.633c.076.05.153.099.229.142.049.028.093.061.142.088.066.038.142.071.213.109.06.033.12.066.186.093.066.033.137.055.202.082.071.027.142.06.213.087.088.033.186.06.279.088.054.016.109.038.164.049.109.033.224.055.344.082a.863.863 0 0 0 .12.027c.098.022.197.033.301.049.06.011.12.022.185.028.328.043.672.06 1.033.06 1.207 0 2.283-.235 3.185-.7.895-.464 1.606-1.098 2.114-1.884.038-.06.071-.115.103-.175l.077-.126c.033-.054.055-.109.087-.164l.066-.131c.027-.049.044-.103.065-.153.23-.529.35-1.059.345-1.589 0-.159-.028-.415-.126-.82-.169-.71-.541-1.868-1.36-3.758-1-2.311-2.42-4.939-4.212-7.817a60.221 60.221 0 0 0-6.118-8.167 35.666 35.666 0 0 0-1.312-1.388 32.286 32.286 0 0 0-1.343-1.256c-.498-.437-.847-1-1.038-1.612a3.479 3.479 0 0 1-.121-1.661 3.49 3.49 0 0 1 1.399-2.228 3.49 3.49 0 0 1 .798-.432c3.228-1.235 5.806-2.863 7.664-4.846a15.746 15.746 0 0 0 2.682-3.9c.104-.213.202-.437.295-.656.027-.065.055-.131.082-.202.066-.158.131-.322.191-.486a16.166 16.166 0 0 0 .273-.781c.017-.044.028-.087.044-.131.071-.23.142-.465.202-.705.017-.06.033-.126.049-.186l.131-.54c.011-.039.022-.077.028-.115.054-.268.109-.541.153-.814.049-.301.093-.606.125-.912v-.033c.022-.208.044-.415.061-.623a20.3 20.3 0 0 1 .016-.246l.033-.562c0-.039 0-.071.005-.11.011-.306.017-.612.011-.917 0-.345-.016-.689-.038-1.033a19.222 19.222 0 0 0-1.289-5.889 17.012 17.012 0 0 0-1.301-2.6 16.357 16.357 0 0 0-2.431-3.103 17.228 17.228 0 0 0-5.654-3.791 11.188 11.188 0 0 0-.617-.262c-1.622-.651-3.365-1.077-5.25-1.301-2.223-.262-4.927-.398-8.052-.398h-22.982c-1.415 0-2.639.153-3.655.458-1.016.306-1.83.765-2.436 1.372a4.75 4.75 0 0 0-.639.814l.011.016zm25.325 6.495c3.371 0 5.911.159 7.763.481.929.164 1.688.366 2.284.617.109.044.213.099.322.148.12.054.246.109.366.164.076.038.153.082.229.12a9.678 9.678 0 0 1 2.879 2.278c.028.033.06.065.088.104.049.054.098.109.142.169.147.186.289.377.42.574.066.092.12.191.181.289.065.104.136.208.196.317 0 .011.011.016.017.027.617 1.082.999 2.273 1.163 3.562.011.104.028.213.033.317.005.071.016.142.022.213.016.251.027.503.033.765 0 .306-.006.601-.022.89 0 .093-.017.18-.022.273a17.24 17.24 0 0 1-.055.579 5.315 5.315 0 0 1-.043.301c-.028.175-.055.349-.088.519-.011.054-.016.115-.027.169a8.334 8.334 0 0 1-.978 2.529 7.398 7.398 0 0 1-.202.334c-.033.049-.066.093-.093.136a6.54 6.54 0 0 1-.41.536 8.277 8.277 0 0 1-.513.546 9.43 9.43 0 0 1-1.617 1.235c-.617.376-1.3.699-2.049.977-.464.17-.945.323-1.458.454-2.355.595-5.294.901-8.735.901h-9.834a3.57 3.57 0 0 1-2.081-.672 3.565 3.565 0 0 1-1.497-2.851l-.131-13.461c0-.109 0-.213.011-.317 0-.032.006-.06.011-.093l.033-.245c0-.028.011-.05.011-.077.022-.104.043-.202.076-.3.006-.022.017-.044.022-.066.017-.049.033-.098.055-.147.011-.028.016-.055.027-.082l.033-.082.115-.246c0-.011.01-.022.016-.033.044-.082.098-.164.147-.246a3.502 3.502 0 0 1 2.945-1.595h10.215v-.011z"/><path d="M321.372 150.913c-.928-.835-2.398-1.256-4.359-1.256h-26.484c-1.95 0-3.561-1.584-3.578-3.529l-.109-11.428c0-.11 0-.213.011-.317 0-.033.005-.06.011-.093l.033-.24c0-.028.005-.049.01-.077.022-.098.044-.202.077-.3.005-.022.016-.044.022-.066l.082-.229.033-.082c.038-.082.076-.17.12-.246 0-.011.011-.016.016-.027a3.865 3.865 0 0 1 .437-.634 3.506 3.506 0 0 1 2.655-1.213h29.008c1.994 0 3.48-.415 4.43-1.229.033-.027.066-.049.093-.076.126-.121.246-.241.355-.366.038-.044.066-.088.104-.132.071-.092.142-.18.202-.278.486-.732.721-1.601.71-2.65-.011-1.414-.486-2.518-1.442-3.381-.962-.863-2.491-1.306-4.545-1.306h-37.3c-1.912 0-3.42.263-4.616.814-.864.394-1.514.929-2.011 1.656-.016.027-.033.06-.054.087l-.132.213-.065.115c-.066.12-.131.246-.191.382-.017.033-.028.071-.044.109a6.08 6.08 0 0 0-.219.568c-.021.071-.049.142-.071.219-.273.89-.42 1.928-.447 3.141a19.104 19.104 0 0 1 1.731 3.371 21.378 21.378 0 0 1 1.481 7.708c.038 4.179-1.033 7.965-3.131 11.111l.093 23.944c1.109 1.939 2.033 3.747 2.754 5.408 1.114 2.562 1.66 4.343 1.671 5.435a5.97 5.97 0 0 1-.601 2.655s0 .011-.005.017c-.055.12-.115.24-.18.355 1.152.47 2.627.71 4.408.71h38.398c1.519 0 2.754-.257 3.688-.765a4.069 4.069 0 0 0 1.196-.961c.093-.104.175-.213.257-.323.016-.021.027-.043.044-.06.065-.098.131-.202.191-.306.016-.021.027-.049.043-.071a3.13 3.13 0 0 0 .175-.371l.033-.087c.044-.104.077-.213.109-.323l.033-.098c.038-.137.071-.273.098-.421 0-.022.006-.043.011-.071a4.236 4.236 0 0 0 .06-.502 6.6 6.6 0 0 0 .017-.47c-.017-1.508-.503-2.677-1.492-3.567-.994-.896-2.523-1.35-4.545-1.35h-30.1c-1.95 0-3.562-1.584-3.578-3.529l-.137-14.127c0-.109 0-.213.011-.316 0-.033.006-.06.011-.093l.033-.246c0-.022.006-.049.011-.077.022-.103.044-.202.076-.3.006-.022.017-.044.022-.066.028-.076.055-.158.082-.229l.033-.082a3.87 3.87 0 0 1 .12-.251c0-.011.006-.017.011-.028.044-.081.099-.163.148-.245.011-.011.016-.028.027-.044a3.508 3.508 0 0 1 2.923-1.557h26.483c1.989 0 3.453-.437 4.343-1.295.224-.213.421-.448.585-.688.011-.016.022-.038.033-.055a2.78 2.78 0 0 0 .191-.322s0-.011.005-.016c.06-.11.11-.23.159-.344.016-.033.027-.071.038-.104.038-.099.071-.202.104-.312.005-.027.016-.054.027-.082.033-.131.066-.267.088-.404 0-.033.01-.06.016-.093.016-.114.033-.229.044-.344 0-.038.005-.082.011-.12a6.76 6.76 0 0 0 .016-.453c-.016-1.929-.454-2.705-1.093-3.284l-.022-.011zM96.442 44.437c-.12.186-.246.383-.367.58-.043.076-.087.152-.136.229-.038.07-.082.142-.12.213-.05.087-.099.18-.148.273-.038.076-.082.147-.12.224a14.626 14.626 0 0 0-.262.524c-.05.104-.099.208-.153.317a3.193 3.193 0 0 0-.11.24c-.054.115-.103.23-.152.35-.033.077-.072.153-.104.235-.055.131-.115.268-.17.404-.027.071-.06.137-.087.208-.082.207-.17.42-.251.64-.033.076-.071.185-.126.327-.306.797-.961 2.507-1.355 3.545-.032.088-.065.17-.093.246-.087.23-.153.404-.19.508l-17.41 45.096c-.088.224-.176.437-.252.65-.016.049-.038.093-.055.142-.06.158-.12.311-.18.464-.027.066-.05.131-.076.197-.05.126-.093.246-.137.366-.027.076-.055.147-.082.224-.038.104-.076.207-.115.306-.027.076-.054.147-.076.218a.16.16 0 0 1-.022.055c-.213.59-.383 1.103-.519 1.546-.284.934-.426 1.852-.415 2.726.005.819.202 1.562.584 2.267l.033.06c.038.066.071.137.11.202.06.093.125.186.19.279.044.06.083.125.126.186.093.125.197.245.306.366.027.027.05.06.071.087.137.147.284.3.437.448.137.131.279.246.415.36 1.148.94 2.371 1.383 3.819 1.383 1.153 0 2.103-.203 2.835-.607.148-.082.284-.169.415-.262.262-.191.486-.415.678-.672a4.076 4.076 0 0 0 .207-.3c.082-.121.164-.257.251-.399.093-.159.192-.328.296-.514.098-.18.196-.371.3-.573.098-.192.197-.399.295-.612.552-1.18 1.158-2.666 1.814-4.463l2.578-7.075a3.439 3.439 0 0 1 1.29-1.66 3.517 3.517 0 0 1 2.015-.634h24.446c.869 0 1.699.328 2.338.874a3.023 3.023 0 0 1 .459.47c.224.278.404.59.541.928l2.289 5.835c0 .011.011.027.016.038.022.055.044.115.066.164.033.076.06.153.087.224.022.06.044.115.066.164.022.06.049.12.065.175.066.169.115.289.132.338l.114.268c.388.918.863 1.988 1.399 3.179.027.066.06.131.087.197a.539.539 0 0 0 .038.076c.317.7.623 1.306.913 1.809.251.437.491.797.721 1.087.082.104.175.202.267.295.345.366.743.683 1.186.939.104.06.207.126.317.181.158.076.333.147.508.207.59.202 1.267.306 2.032.306 1.743 0 3.125-.573 4.348-1.803.137-.136.263-.273.383-.409.011-.011.016-.022.027-.033.016-.022.038-.044.055-.066.114-.136.224-.273.327-.415.006-.011.017-.022.022-.033.661-.928.973-1.895.962-2.966 0-.541-.109-1.218-.317-2.027-.033-.136-.071-.273-.109-.415-.355-1.278-.934-2.857-1.727-4.714l-16.918-40.638c-.137-.334-.268-.64-.382-.918-.323-.77-.568-1.36-.754-1.814-.126-.3-.23-.546-.306-.737-.011-.033-.027-.066-.038-.093-.279-.666-.279-.672-.279-.672-.382-.978-.737-1.868-1.065-2.688-.399-1-.765-1.879-1.076-2.622a19.738 19.738 0 0 0-2.011-3.633c-.754-1.07-1.753-1.96-2.977-2.65-.3-.168-.623-.316-.967-.442a8.62 8.62 0 0 0-.803-.245c-.841-.219-1.775-.334-2.813-.334-.623 0-1.208.044-1.765.126-1.049.153-1.972.453-2.753.896-.104.055-.197.12-.295.18-.486.3-.934.634-1.338 1.01-.487.449-.918.951-1.284 1.503l-.017-.022zm7.533 15.138h.005c.464 0 .912.093 1.328.256.743.301 1.376.842 1.78 1.546.093.164.175.334.241.514l6.615 17.58c.104.272.17.546.202.83.006.049 0 .098.011.147.006.082.017.164.017.246 0 .06 0 .115-.006.175 0 .076-.005.158-.016.235-.006.06-.016.12-.027.18-.011.076-.022.153-.044.224l-.049.18-.066.219c-.022.06-.049.115-.071.175-.027.07-.06.136-.093.202-.027.054-.06.114-.093.17-.049.081-.092.169-.153.25a3.507 3.507 0 0 1-2.889 1.508H97.884a3.618 3.618 0 0 1-2.644-1.163c-.099-.104-.186-.219-.274-.334a3.522 3.522 0 0 1-.65-2.376c0-.016 0-.033.006-.055.027-.267.087-.53.175-.786l6.167-17.585a3.508 3.508 0 0 1 3.3-2.338h.011z"/><path d="M133.019 89.495c1.918 4.605 3.234 7.773 3.284 7.893.273.64.519 1.24.743 1.814.12.306.229.601.338.885.099.273.197.541.284.798.044.12.082.24.121.355.174.541.327 1.043.447 1.518.263 1.022.394 1.885.399 2.623 0 .158 0 .311-.011.464 0 .038 0 .076-.005.115-.011.147-.022.3-.044.448v.011c-.022.147-.044.3-.076.442-.006.038-.017.071-.022.109-.033.142-.066.279-.104.416 0 .005 0 .016-.005.021a7.086 7.086 0 0 1-.142.426c-.011.033-.028.071-.039.104a7.862 7.862 0 0 1-.158.388c0 .011-.011.022-.016.033-.066.136-.132.273-.208.41-.016.032-.038.065-.055.103l-.065.121a8.97 8.97 0 0 1-1.098 1.491c.409.197.852.35 1.327.453.148.033.301.06.454.088.387.06.803.087 1.229.087 1.928 0 3.376-.59 4.55-1.857.088-.093.17-.197.252-.295a.82.82 0 0 1 .071-.093c.021-.033.043-.066.065-.093.033-.049.071-.098.104-.153.093-.142.18-.289.262-.442.645-1.224.962-2.874.945-4.922l-.186-19.497a3.489 3.489 0 0 1 2.136-3.25c.213-.088.432-.16.661-.208.055-.011.11-.017.17-.028.043-.005.082-.016.125-.021.137-.017.279-.028.421-.028h2.125a27.24 27.24 0 0 1 1.863.066c1.786.131 3.349.459 4.649.983.142.06.289.126.431.191l.224.099c.142.07.284.147.426.224.077.043.153.076.23.12.115.065.224.136.339.207.103.066.213.126.316.197.088.055.175.12.263.186 0 0 .005 0 .011.005.994.694 1.983 1.574 2.949 2.65.481.535.989 1.147 1.508 1.83.175.23.35.464.53.704a63.594 63.594 0 0 1 1.311 1.868 85.982 85.982 0 0 1 2.256 3.568l5.747 9.369c.235.382.459.748.678 1.098 1.038 1.671 1.868 2.961 2.513 3.895.136.196.284.388.431.573.508.64 1.071 1.202 1.694 1.688.163.126.327.252.502.372.071.049.153.093.23.142a5.558 5.558 0 0 0 1.923.716c.453.082.934.131 1.447.131 1.104 0 2.092-.197 2.945-.59.082-.039.164-.071.24-.115a5.538 5.538 0 0 0 1.912-1.595c.071-.093.137-.191.202-.29.497-.775.749-1.562.738-2.338 0-.437-.203-1.622-1.486-4.578a39.586 39.586 0 0 0-.831-1.791c-.153-.306-.306-.623-.469-.94a75.338 75.338 0 0 0-2.912-5.091 61.007 61.007 0 0 0-1.153-1.77 59.946 59.946 0 0 0-4.971-6.397c-.322-.36-.655-.71-.983-1.055a32.397 32.397 0 0 0-1.666-1.595 3.606 3.606 0 0 1-1.104-1.824c-.016-.055-.027-.11-.038-.164a3.588 3.588 0 0 1-.022-1.279 3.34 3.34 0 0 1 .098-.398c.011-.039.028-.077.039-.115.032-.093.065-.186.109-.279l.049-.114a5.32 5.32 0 0 1 .18-.328c0-.006.011-.017.011-.022a3.284 3.284 0 0 1 .333-.437c.066-.077.132-.148.203-.213l.032-.033c.328-.306.71-.552 1.142-.715.202-.077.399-.154.596-.235a24.53 24.53 0 0 0 3.261-1.607c.164-.098.328-.196.486-.3.016-.01.027-.022.044-.027l.098-.066c.268-.175.53-.35.787-.53.147-.109.295-.213.442-.328.153-.114.301-.234.448-.355.017-.01.027-.021.044-.038a22.147 22.147 0 0 0 .765-.666c.24-.224.475-.46.699-.694.164-.175.317-.35.47-.53.032-.044.065-.082.103-.126.093-.114.186-.229.279-.35 2.191-2.829 3.283-6.495 3.24-10.92-.022-2.425-.47-4.752-1.328-6.92a16.817 16.817 0 0 0-3.726-5.699l-.016-.016a17.425 17.425 0 0 0-5.643-3.78c-1.792-.792-3.737-1.306-5.862-1.563-2.223-.262-4.927-.398-8.052-.398H140.52c-1.218 0-2.294.114-3.218.338-.147.039-.295.077-.437.12-.125.039-.251.077-.371.12a6.006 6.006 0 0 0-1.377.689 4.52 4.52 0 0 0-.399.3c-.021.017-.043.039-.065.055a3.738 3.738 0 0 0-.219.208c-.622.628-1.081 1.475-1.382 2.54-.038.142-.076.29-.109.437-.011.044-.016.082-.027.126-.039.196-.077.393-.11.6 0 .028-.005.06-.01.088-.028.191-.05.393-.072.595a12.972 12.972 0 0 0-.054.798v.147c-.006.24-.011.487-.011.743l.382 39.677-.022.022zm13.423-37.459s.049-.044.071-.066c.076-.07.153-.13.235-.196 0 0 .011-.006.011-.011.24-.18.502-.339.786-.453l.093-.033c.093-.038.191-.071.29-.099.027-.005.054-.016.081-.021.285-.071.574-.115.88-.115h10.21c.634 0 1.235.005 1.814.016 1.436.028 2.698.088 3.796.186.437.038.853.082 1.24.136 1.361.18 2.41.432 3.196.76.126.049.241.11.366.164.055.027.115.049.17.076a9.978 9.978 0 0 1 2.523 1.7c.213.201.416.414.612.633.038.044.077.087.115.136.229.268.453.547.65.842.071.098.131.207.191.311.06.098.126.197.186.295.066.115.12.23.18.344.049.093.104.186.148.284.065.137.12.274.175.41.032.082.071.158.103.24.028.077.055.153.077.23.109.311.207.633.284.961 0 .017.005.028.011.044.011.05.027.093.038.142.044.186.071.377.104.568.011.05.022.098.027.153.027.191.049.388.066.585 0 .054.011.103.016.158.016.251.027.503.033.765 0 .328 0 .65-.022.961 0 .071-.016.137-.016.202-.017.197-.033.388-.055.58a4.577 4.577 0 0 1-.044.3c-.027.175-.054.35-.087.519-.022.098-.038.191-.06.29-.038.174-.088.344-.137.513l-.065.235a8.01 8.01 0 0 1-.257.705s0 .01-.006.01a7.578 7.578 0 0 1-.305.645l-.017.033a.038.038 0 0 1-.011.022c-.027.049-.06.098-.087.147a.569.569 0 0 1-.06.093A7.04 7.04 0 0 1 172.762 68c-1.033 1-2.371 1.775-3.988 2.321-.366.126-.743.24-1.137.339a25.41 25.41 0 0 1-1.693.36 35.661 35.661 0 0 1-3.458.421c-1.125.082-2.316.12-3.584.12h-9.833a3.538 3.538 0 0 1-2.081-.677 3.55 3.55 0 0 1-1.497-2.852l-.131-13.46a3.484 3.484 0 0 1 1.016-2.497c.016-.016.033-.027.044-.043l.022.005zm21.486 74.83c0 .164 0 .328-.011.492 0 .043 0 .092-.011.136-.005.12-.016.246-.033.361 0 .043-.011.082-.016.125-.022.153-.044.306-.071.459 0 .022-.011.044-.011.066a8.243 8.243 0 0 1-.12.513 6.516 6.516 0 0 1-.104.334l-.033.098c-.049.136-.104.273-.158.41-.011.027-.028.054-.038.087-.05.109-.099.213-.153.317-.022.038-.039.076-.06.115-.061.103-.121.213-.186.316-.017.022-.028.044-.044.071a3.848 3.848 0 0 1-.306.427 4.432 4.432 0 0 1-.202.251l-.093.109c-.065.077-.136.153-.207.229-.033.033-.061.066-.093.093a5.475 5.475 0 0 1-.76.65 6.735 6.735 0 0 1-1.141.678c-.017.005-.033.016-.05.022-1.021.475-2.234.764-3.627.863-.229.36-.448.732-.661 1.103-.257.448-.508.907-.743 1.377a33.48 33.48 0 0 0-1.895 4.545c-1.464 4.354-2.18 9.216-2.125 14.449.038 4.059.535 7.927 1.485 11.543.055.219.115.437.175.65.028.093.049.186.077.279.06.213.125.426.185.634.033.098.061.202.093.3l.295.918c1.481 4.37 3.666 8.156 6.501 11.253 2.83 3.098 6.397 5.529 10.609 7.228.612.245 1.245.475 1.885.688.038.011.076.022.109.038.093.027.18.06.273.087.251.082.508.159.765.235.12.039.246.071.366.104.027.006.054.017.082.022l.24.066c.426.114.858.224 1.289.327h.022c.432.099.869.186 1.311.273l.246.05a31.983 31.983 0 0 0 1.568.256c.459.066.923.126 1.393.175h.011c.464.049.939.093 1.415.126.087.005.175.011.267.022.465.032.929.054 1.404.071.093 0 .181.005.274.011a45.4 45.4 0 0 0 1.485.027c.361 0 .711 0 1.06-.011.115 0 .23-.005.344-.011a26.567 26.567 0 0 0 1.093-.044c.213-.011.421-.021.628-.038.137-.011.273-.016.404-.027l.607-.049c.131-.011.267-.022.399-.039l.606-.065c.126-.017.246-.027.371-.044.219-.027.437-.06.656-.087.098-.017.202-.028.3-.044.317-.049.629-.098.94-.153.022 0 .044-.011.066-.011.289-.054.579-.109.863-.169.054-.011.114-.027.169-.038.142-.028.279-.06.421-.093a32.634 32.634 0 0 0 5.086-1.584 29.343 29.343 0 0 0 4.485-2.262c.065-.038.125-.082.191-.12.12-.077.246-.153.366-.23.267-.175.53-.349.786-.535.235-.164.465-.333.694-.503l.197-.147c.289-.219.573-.443.852-.672 0 0 .011-.006.016-.011.203-.169.405-.339.601-.514.077-.065.153-.136.23-.207l.175-.159c.289-.262.568-.535.846-.808.05-.049.093-.093.137-.142a24.097 24.097 0 0 0 1.53-1.694c.054-.065.109-.136.163-.202.224-.273.443-.546.656-.83.005-.011.016-.016.022-.027.207-.273.404-.552.606-.831l.153-.218c.202-.29.399-.585.585-.88.016-.027.032-.054.054-.087.142-.23.284-.459.421-.688.049-.088.098-.175.153-.257.104-.18.207-.361.311-.546.055-.093.104-.192.159-.285.103-.185.202-.376.3-.568.044-.087.088-.169.131-.256.137-.274.273-.552.404-.831.011-.022.017-.043.028-.06.12-.262.24-.524.355-.792l.115-.279c.082-.196.164-.398.245-.6.044-.104.082-.208.121-.312.076-.202.158-.41.229-.617.033-.093.071-.186.104-.279.104-.3.207-.595.306-.901 1.3-4.032 1.977-8.544 2.016-13.433v-.984a66.13 66.13 0 0 0-.164-4.129c-.252-3.453-.787-6.556-1.612-9.353a30.438 30.438 0 0 0-2.027-5.173 29.463 29.463 0 0 0-2.742-4.43 27.974 27.974 0 0 0-7.26-6.753 27.289 27.289 0 0 0-1.601-.966 30.868 30.868 0 0 0-4.687-2.12c-4.042-1.442-8.604-2.174-13.624-2.174-3.097 0-6.009.289-8.719.863a32.054 32.054 0 0 0-5.266 1.573 29.257 29.257 0 0 0-5.965 3.196c.016.218.027.437.032.666l.006-.005zm11.909 5.102a18.975 18.975 0 0 1 1.065-.431 27.418 27.418 0 0 1 .869-.301 14.04 14.04 0 0 1 1.092-.306c.241-.06.481-.114.727-.169.071-.016.136-.027.207-.044.301-.06.601-.114.902-.158.065-.011.131-.017.191-.028.142-.021.29-.038.437-.054.12-.017.24-.033.366-.044l.169-.016h.022a21.298 21.298 0 0 1 2.065-.099c3.715 0 6.976.787 9.943 2.393.027.017.06.033.087.049l.218.121c.235.131.47.267.7.409 3.234 2.011 5.665 4.873 7.424 8.774 1.267 2.807 2.005 6.167 2.261 10.417a57.537 57.537 0 0 1 .104 3.092v1.038c0 .344-.011.683-.022 1.016-.011.312-.022.617-.043.923v.06c-.017.334-.039.667-.066.995a35.526 35.526 0 0 1-.661 4.594c-.432 2.027-1.043 3.884-1.83 5.561-1.765 3.775-4.185 6.627-7.195 8.5-.076.049-.153.099-.234.148-.055.033-.11.06-.164.093-.208.12-.41.235-.618.349-2.939 1.606-5.894 2.36-9.232 2.36-2.912 0-5.632-.546-8.085-1.622a19.938 19.938 0 0 1-.912-.432c-2.098-1.071-4.004-2.567-5.671-4.468-1.901-2.164-3.397-4.922-4.452-8.189-.06-.186-.114-.377-.169-.568-.934-3.103-1.431-6.578-1.464-10.352-.038-3.966.442-7.605 1.426-10.8.082-.268.174-.525.262-.787.033-.087.06-.18.087-.268.033-.098.066-.191.104-.284.098-.278.202-.552.311-.819l.082-.208c.131-.322.268-.644.41-.95.033-.077.071-.148.104-.224.115-.246.235-.487.355-.727.044-.082.082-.164.126-.246.153-.295.311-.584.475-.863l.055-.087c.152-.262.316-.519.48-.771a14.918 14.918 0 0 1 .628-.901l.033-.049a17.873 17.873 0 0 1 3.42-3.458l.147-.115.006-.005c.147-.115.306-.219.459-.323.12-.087.24-.174.36-.256.164-.11.334-.208.497-.312.121-.071.235-.147.35-.218.191-.109.388-.213.579-.317.104-.055.202-.115.301-.164.3-.153.606-.3.912-.437v-.022zM60.932 90.112c-.109.06-.229.115-.344.164l-.054.016c-.11.044-.224.082-.34.11-.02.005-.043.01-.06.016a2.945 2.945 0 0 1-.382.07c-.027 0-.054.006-.082.012a3.274 3.274 0 0 1-.404.027 3.575 3.575 0 0 1-3.381-2.398c-.137-.388-13.493-38.671-13.499-38.693-1.043-3.125-2.07-5.42-3.032-6.823-.863-1.257-2.392-1.89-4.54-1.89-1.808 0-3.195.562-4.37 1.775-.13.137-.25.273-.371.41-.918 1.081-1.35 2.207-1.333 3.496.005.584.104 1.294.311 2.163.208.88.46 1.71.76 2.458.306.782.606 1.59.896 2.393.13.35 4.474 11.816 8.74 23.092 5.547 14.654 8.322 21.987 8.325 21.998a141.426 141.426 0 0 0 1.83 4.857c.596 1.491 1.295 2.84 2.087 4.01a8.656 8.656 0 0 0 2.972 2.709c1.207.677 2.715 1.022 4.485 1.022 1.765 0 3.267-.35 4.463-1.038a8.889 8.889 0 0 0 1.983-1.546 7.027 7.027 0 0 0 .514-.596c.142-.18.278-.36.404-.551.055-.082.11-.17.164-.257.683-1.082 1.295-2.327 1.819-3.726a144.33 144.33 0 0 0 1.732-4.873l10.1-27.86c3.36-9.265 6.288-17.345 6.397-17.645.263-.77.536-1.563.814-2.333.268-.743.492-1.513.667-2.289.17-.748.251-1.447.246-2.087-.011-.879-.279-1.764-.809-2.649a6.086 6.086 0 0 0-2.19-2.136 5.93 5.93 0 0 0-3-.803c-1.469 0-2.627.333-3.441 1-.11.093-.219.186-.317.278-.683.629-1.185 1.317-1.497 2.054-.393.945-.994 2.655-1.786 5.086L62.615 88.124c0 .016-.01.032-.016.049a3.7 3.7 0 0 1-.487.934c-.01.016-.022.027-.032.043a3.43 3.43 0 0 1-.323.366c-.016.017-.032.028-.043.044l-.011.011c-.017.017-.033.028-.044.044-.087.082-.18.158-.273.23-.011.01-.022.016-.033.027-.104.07-.208.142-.317.202-.022.01-.049.027-.07.038h-.034z"/><path d="M109.579 124.528c2.224 1.879 3.89 3.895 4.95 5.992.234.47.448.945.633 1.415h11.762c1.955 0 3.561 1.584 3.578 3.529l.459 47.636c.027 2.677.644 4.682 1.841 5.955 1.18 1.262 2.726 1.901 4.605 1.901 1.846 0 3.354-.634 4.501-1.88.088-.092.17-.196.252-.3.021-.033.049-.06.071-.093.06-.076.114-.158.169-.24.83-1.262 1.235-3.054 1.213-5.348l-.459-47.636a3.501 3.501 0 0 1 3.507-3.529h12.592c2.218 0 3.878-.475 4.938-1.41 1.044-.923 1.546-2.119 1.53-3.66-.017-1.54-.536-2.748-1.584-3.687-1.06-.945-2.732-1.426-4.983-1.426h-44.915c-2.13 0-3.753.47-4.824 1.388a5.564 5.564 0 0 0-.36.344 5.32 5.32 0 0 0-.312.371c.29.219.569.437.836.667v.011z"/><path d="M107.132 187.148l.033-.016c.038-.022.076-.044.114-.06.148-.082.29-.17.432-.257a24.225 24.225 0 0 0 1.486-.972c.016-.011.027-.022.043-.033.077-.055.153-.115.23-.17.126-.092.257-.185.382-.284.071-.054.137-.109.208-.163.126-.099.257-.203.377-.301.093-.076.18-.158.273-.235.098-.082.197-.164.29-.251.098-.088.191-.18.289-.268.082-.076.169-.153.251-.235.121-.114.235-.235.35-.355l.164-.164c.109-.114.218-.235.322-.349.055-.06.115-.12.169-.181l.295-.344c.061-.071.121-.136.175-.207.055-.066.104-.131.159-.197.235-.29.459-.59.672-.89.06-.082.114-.164.169-.246.087-.131.18-.262.268-.399.093-.148.185-.301.278-.453.099-.164.191-.328.284-.492.241-.426.459-.858.667-1.295.224-.481.431-.972.612-1.475.093-.251.18-.508.262-.765.644-2.026.961-4.184.939-6.457-.032-3.37-.666-6.249-1.879-8.554a16.18 16.18 0 0 0-5.069-5.736c-2.185-1.53-4.873-2.852-7.992-3.934-2.748-.95-5.813-1.841-9.183-2.666-.487-.12-.984-.234-1.48-.355-.006 0-.017 0-.023-.005-3.124-.781-5.402-1.388-6.768-1.797a22.018 22.018 0 0 1-4.201-1.765c-1.426-.77-2.568-1.715-3.398-2.802-.88-1.147-1.311-2.469-1.322-4.026 0-.164 0-.323.011-.487 0-.049.01-.098.01-.153.012-.109.017-.218.034-.322.005-.06.016-.12.027-.18.016-.098.027-.191.05-.284.01-.066.026-.126.043-.191l.065-.268c.017-.066.039-.126.055-.191.027-.088.055-.175.082-.257a2.56 2.56 0 0 1 .071-.191c.033-.082.066-.17.104-.251.027-.061.054-.126.082-.186.01-.028.027-.06.038-.088.59-1.218 1.562-2.316 2.917-3.288 2.333-1.677 5.441-2.524 9.221-2.524 4.087 0 7.13.797 9.047 2.371 1.857 1.518 3.474 3.665 4.813 6.364.956 1.748 1.841 3.01 2.622 3.758.704.672 1.781 1.006 3.201 1.006.098 0 .197-.011.295-.017.093 0 .191 0 .284-.011.087-.011.169-.027.257-.038h.027c.273-.044.535-.093.787-.175.071-.022.136-.054.207-.082.099-.038.197-.071.29-.109.082-.038.158-.082.235-.126.076-.043.158-.076.235-.125.087-.055.169-.115.251-.17.066-.043.131-.082.197-.131.06-.049.12-.104.18-.153.082-.071.169-.136.246-.207.136-.131.273-.268.404-.421.131-.153.257-.3.371-.453.039-.049.071-.104.11-.153a5.627 5.627 0 0 0 1.087-3.442c-.017-1.71-.492-3.502-1.404-5.321-.923-1.83-2.398-3.605-4.392-5.288-2-1.682-4.551-3.059-7.583-4.08-3.042-1.027-6.708-1.552-10.892-1.552-5.245 0-9.85.787-13.696 2.344-.71.289-1.393.601-2.043.934-2.819 1.453-5.053 3.349-6.66 5.659-1.971 2.836-2.95 6.119-2.916 9.773.038 3.841 1.021 7.086 2.928 9.642 1.923 2.59 4.556 4.665 7.823 6.168 3.337 1.535 7.538 2.901 12.488 4.048 3.753.852 6.8 1.677 9.057 2.436 2.338.792 4.288 1.956 5.785 3.469 1.557 1.573 2.355 3.627 2.382 6.113.016 1.688-.366 3.207-1.142 4.572-.06.104-.12.208-.18.306-.06.099-.126.197-.191.295-.028.044-.055.088-.088.126a9.764 9.764 0 0 1-.317.426c-.016.022-.038.044-.054.071a14.71 14.71 0 0 1-.29.344c-.043.049-.087.093-.125.142-.082.088-.164.18-.252.268-.049.049-.098.104-.153.153-.087.082-.174.169-.262.251-.054.049-.104.098-.158.148-.099.087-.197.169-.295.256-.049.044-.099.082-.148.126-.147.12-.3.24-.459.361 0 0-.011.005-.016.011-2.71 2.026-6.282 3.053-10.609 3.053-3.146 0-5.741-.513-7.719-1.524-1.977-1.011-3.545-2.327-4.649-3.9-1.07-1.524-2.087-3.436-3.01-5.682-.715-1.786-1.535-3.081-2.502-3.96-.923-.842-1.972-1.235-3.305-1.235-1.628 0-2.982.541-4.015 1.606-.164.17-.306.339-.442.514-.76.972-1.115 2.059-1.104 3.37.028 2.786 1.022 5.709 2.945 8.692a22.323 22.323 0 0 0 7.566 7.227c4.359 2.507 9.98 3.78 16.705 3.78 5.61 0 10.51-.934 14.569-2.775a24.205 24.205 0 0 0 2.022-1.027l-.033-.011zM56.605.538c4.228 0 8.457.005 12.68-.01.579 0 1.136.103 1.704.147.333.021.563.25.803.47.306.283.399.294.644.038.345-.35.727-.487 1.213-.547a11.4 11.4 0 0 1 1.366-.098c2.043 0 4.08.011 6.124-.01.497 0 .961.13 1.442.168a.68.68 0 0 1 .54.388c.1.202.181.426.214.645.044.251.033.513.033.776V8.89c0 .251.022.513.082.759.076.295.333.42.595.317a3 3 0 0 0 .459-.23c.224-.13.442-.273.66-.404 1.263-.776 2.645-1.196 4.103-1.442a9.659 9.659 0 0 1 2.311-.087c1.142.087 2.256.344 3.3.874 1.322.672 2.322 1.666 3.059 2.933a10.38 10.38 0 0 1 1.311 3.791c.098.683.153 1.366.158 2.049 0 .399-.06.803.11 1.19.022.05.016.116.016.17 0 1.06.011 2.125.017 3.185 0 .29 0 .574-.011.863-.011.372.032.738-.099 1.11-.07.207-.027.453-.027.687v7.506c0 .257 0 .52-.027.776a.992.992 0 0 1-.902.896c-.196.022-.398.016-.6.016h-8.37c-.524-.032-.896-.36-1.016-.88a5.134 5.134 0 0 1-.13-1.19c.005-3.939 0-7.877.005-11.822 0-.491-.022-.972-.192-1.442-.3-.82-.874-1.262-1.742-1.278-.487-.011-.978-.038-1.442.18-.104.05-.213.088-.312.142-.858.443-1.338 1.093-1.333 2.12.022 4.08.011 8.167.006 12.253 0 .29-.017.574-.028.863-.01.3-.147.546-.35.765a.814.814 0 0 1-.6.29H73.49c-.58-.028-.907-.345-1.06-.93a4.901 4.901 0 0 1-.12-1.19V10.682c0-.371.038-.748-.093-1.108-.071-.197-.235-.285-.393-.17-.514.377-1.088.475-1.705.47-1.753-.016-3.507 0-5.266 0-.175 0-.344.005-.519 0-.743-.044-1.213.486-1.174 1.164.01.202 0 .398 0 .6v20.36c0 .23.01.46 0 .689-.017.17-.06.339-.115.497-.142.431-.448.65-.901.672H51.103c-.47 0-.858-.202-1.043-.852-.038-.137-.044-.284-.05-.426-.005-.23 0-.46 0-.694V11.61c0-.23.017-.459 0-.688-.065-.732-.333-1-1.087-1.054-.169-.011-.344 0-.518 0h-5.267c-.256 0-.519.005-.775-.033-.52-.088-.902-.312-1.006-.902-.049-.25-.103-.497-.103-.759V2.308c0-.355.082-.683.19-1.005.121-.35.394-.585.76-.612.541-.038 1.07-.153 1.623-.153 4.255.022 8.51.011 12.766.011l.011-.011zm61.861 22.392h-5.174c-.344 0-.688.027-1.032.05a.644.644 0 0 0-.497.305c-.044.066-.082.175-.055.24.126.323.262.634.503.897.562.595 1.223 1.037 1.999 1.289.574.186 1.147.35 1.759.377.399.016.781.136 1.191.13 1.885-.032 3.693-.36 5.414-1.14a6.74 6.74 0 0 1 .721-.274.625.625 0 0 1 .737.262c.137.224.219.459.213.732-.011.574 0 1.147 0 1.726v2.846c.028.76-.311 1.328-.945 1.716-1.103.672-2.267 1.235-3.518 1.579-.939.25-1.89.431-2.857.562-1.289.175-2.578.159-3.862.088-1.224-.071-2.436-.328-3.616-.678a12.995 12.995 0 0 1-2.759-1.19c-.798-.454-1.563-.962-2.251-1.58a16.788 16.788 0 0 1-1.404-1.381c-1.305-1.475-2.125-3.185-2.578-5.08-.186-.782-.383-1.558-.383-2.366 0-.312-.147-.634-.103-.929.131-.901.153-1.825.366-2.715.234-.972.464-1.95.846-2.879a13.155 13.155 0 0 1 2.142-3.507 11.217 11.217 0 0 1 2.212-2.021 11.887 11.887 0 0 1 4.403-1.869c.951-.196 1.912-.333 2.89-.316h.863c1.852.021 3.644.366 5.343 1.098 1.606.693 2.933 1.786 4.015 3.168 1.136 1.442 1.852 3.086 2.262 4.873.245 1.092.393 2.196.36 3.321-.011.432 0 .863 0 1.295 0 .142.011.295-.016.432-.088.415-.273.732-.732.857a2.99 2.99 0 0 1-.847.099h-5.605l-.005-.017zm-5.048-5.135h1.114c.17 0 .345-.005.514-.038.377-.066.595-.448.497-.841-.038-.137-.06-.279-.109-.416-.191-.497-.546-.868-.962-1.18-.295-.223-.655-.152-.994-.158h-.257c-.983.016-1.797 1.043-1.906 1.808-.06.443.136.721.568.798.142.027.284.022.426.022h1.115l-.006.005zm17.602-.53V2.335c0-.257-.022-.519.011-.776.065-.448.245-.808.764-.912.224-.05.443-.104.672-.104h10.096c.229 0 .448.022.677.099.557.185.825.458.885 1.021.022.23.005.459.005.688v20.191c0 .371.017.743.044 1.12.011.142.049.284.099.41.12.29.338.459.666.453h7.249c.344 0 .683-.033 1.022.093.18.066.398.038.595.033.339-.006.525-.192.53-.547 0-.284-.027-.573-.055-.857-.005-.082-.076-.164-.082-.246-.065-1.431-.152-2.863.077-4.294a11.575 11.575 0 0 1 1.344-3.879 13.827 13.827 0 0 1 4.561-4.84c1.311-.846 2.726-1.48 4.245-1.835 1.568-.366 3.168-.486 4.78-.41a15.37 15.37 0 0 1 4.042.727 12.868 12.868 0 0 1 3.874 2.021c1.289.978 2.403 2.125 3.283 3.496.775 1.219 1.398 2.497 1.71 3.923.098.448.218.89.338 1.332.028.11.082.213.131.312.028.049.082.104.126.104s.109-.05.126-.099c.109-.322.24-.644.3-.978.317-1.682.929-3.25 1.857-4.681.377-.58.776-1.142 1.273-1.623.246-.24.492-.486.732-.732 1.612-1.638 3.578-2.665 5.775-3.255 1.841-.498 3.72-.634 5.621-.52 1.786.104 3.512.47 5.2 1.044.246.082.481.191.705.311.497.263.77.678.776 1.251v1.727c-.006.715-.027 1.436-.044 2.152-.005.371-.011.737-.093 1.109-.087.388-.022.797-.038 1.202-.011.257-.005.524-.071.77-.126.492-.475.705-.978.612a3.378 3.378 0 0 1-.65-.219c-.923-.393-1.868-.732-2.862-.906-.536-.099-1.071-.192-1.612-.224-.748-.05-1.486.087-2.196.322-1.196.393-1.972 1.224-2.447 2.37-.334.798-.366 1.64-.23 2.453.148.907.645 1.656 1.431 2.175.88.579 1.863.88 2.907.956.311.021.628-.022.934.109.098.044.24.05.338.005.416-.163.853-.076 1.279-.125.71-.082 1.415-.213 2.092-.448.35-.12.705-.246 1.06-.35.595-.17 1 .055 1.185.656.06.19.077.388.115.584.093.476-.033.978.153 1.448a.56.56 0 0 1-.005.339c-.17.53-.126 1.081-.148 1.622-.027.568.027 1.142-.109 1.71-.088.355-.017.743-.022 1.12 0 .202.005.404 0 .6-.027.53-.268.935-.754 1.164a4.69 4.69 0 0 1-.798.306c-1.169.29-2.343.492-3.545.601-1.005.093-2.005.148-3.004.093-2.273-.12-4.475-.546-6.55-1.557-2.333-1.142-4.174-2.813-5.572-4.988-.705-1.092-1.197-2.283-1.519-3.54-.126-.497-.246-1-.372-1.502a1.274 1.274 0 0 0-.131-.311c-.022-.044-.082-.071-.131-.093a.177.177 0 0 0-.06.055c-.126.377-.279.748-.371 1.141-.334 1.399-.771 2.76-1.514 4.005-.458.765-.967 1.491-1.6 2.125-.71.71-1.393 1.447-2.224 2.037a14.062 14.062 0 0 1-5.413 2.327c-1.328.263-2.666.405-4.015.312-1.688-.115-3.344-.393-4.933-1.016-2.049-.798-3.764-2.076-5.245-3.671a12.728 12.728 0 0 1-1.666-2.29c-.175-.294-.371-.578-.573-.857-.104-.147-.356-.087-.416.088a3.169 3.169 0 0 0-.164 1.01 394.42 394.42 0 0 1 0 4.485c0 .257 0 .52-.043.776-.099.612-.41.907-1.022.978-.229.027-.459.027-.688.027h-20.109c-.344 0-.683.011-1.016-.131-.388-.164-.606-.426-.634-.841-.016-.257-.005-.52-.005-.776V17.249l.044.016zm40.922 3.496c.038-.377-.11-.994-.366-1.568-.59-1.333-1.628-2.152-3.092-2.234-1.431-.082-2.535.563-3.267 1.82-.432.742-.568 1.545-.546 2.392.033 1.169.393 2.174 1.267 2.994.388.36.792.682 1.295.814.573.147 1.152.245 1.764.081.65-.174 1.235-.437 1.716-.917.857-.864 1.201-1.918 1.234-3.376l-.005-.006zm149.698 2.18h-5.436c-.202 0-.404-.006-.601.005-.535.044-.743.42-.475.907.12.224.279.437.448.622.371.405.819.722 1.322.946.896.398 1.83.666 2.819.66h1.813c1.191 0 2.328-.267 3.431-.693.399-.153.792-.339 1.185-.503.132-.054.263-.115.399-.158.361-.104.781.125.88.491.043.164.049.345.049.514 0 1.584-.006 3.163.005 4.747 0 .667-.262 1.153-.819 1.502a14.391 14.391 0 0 1-2.939 1.404c-1.278.443-2.584.7-3.933.825-.743.071-1.486.126-2.229.104-2.371-.066-4.665-.464-6.812-1.513-2.213-1.076-4.065-2.59-5.414-4.66-.885-1.355-1.448-2.846-1.726-4.458-.224-1.289-.153-2.573-.148-3.862 0-.344.022-.688.011-1.032-.011-.328-.175-.503-.475-.492-.464.022-.907-.093-1.36-.153-1.464-.197-2.852-.005-4.114.852-.983.672-1.803 1.508-2.567 2.41-.317.37-.448.824-.508 1.338-.186 1.546-.088 3.097-.104 4.643-.022 1.552 0 3.103 0 4.66v.776c-.017.453-.246.77-.678.896a3.158 3.158 0 0 1-.846.114c-1.066.011-2.131 0-3.191 0h-4.397c-.257 0-.519 0-.776-.038-.595-.076-.929-.41-1-1.005-.032-.257-.021-.514-.021-.776V23.82c0-.344.049-.688-.099-1.022-.049-.125-.027-.284-.027-.426v-2.758c0-.088-.016-.18.005-.257.192-.557.115-1.136.115-1.71.006-2.557 0-5.119 0-7.675 0-.29.006-.574.033-.858.038-.42.306-.694.683-.809.349-.109.726-.174 1.092-.174 2.442-.017 4.89-.017 7.331 0 .366 0 .738.082 1.098.169.328.082.541.322.634.645.082.273.12.557.202.835.099.323.306.41.585.24.317-.196.623-.409.918-.633a8.132 8.132 0 0 1 3.414-1.557 5.978 5.978 0 0 1 2.895.142c.546.164.951.486 1.038 1.131.044.311.104.617.104.934v5.26c0 .318.022.635.049.946.005.11.055.219.098.322.022.05.082.099.126.104.044 0 .12-.038.142-.076.142-.246.284-.497.41-.754.278-.568.535-1.142.825-1.705.491-.945 1.092-1.819 1.862-2.567.514-.497 1-1.022 1.585-1.453 1.141-.847 2.403-1.437 3.764-1.836a13.41 13.41 0 0 1 3.725-.54c.689 0 1.382-.017 2.065.049 1.601.158 3.169.502 4.616 1.24 1.344.688 2.48 1.628 3.447 2.797 1.355 1.638 2.109 3.523 2.524 5.577.109.535.098 1.087.197 1.617.153.803.054 1.6.104 2.398.016.268-.055.514-.148.754a.972.972 0 0 1-.661.617 2.989 2.989 0 0 1-.929.132h-5.61l-.005.021zm-4.884-5.12V17.8h.945c.142 0 .284-.022.426-.038.53-.06.781-.372.683-.874-.098-.487-.301-.935-.667-1.273-.437-.405-.977-.634-1.567-.546-.995.147-1.645.742-1.978 1.693-.169.497.016.847.53.972.109.028.229.028.344.033.432.022.858.038 1.289.055h-.005zM268.541 7.749c1.732 0 3.42.24 5.064.809a13.506 13.506 0 0 1 4.895 2.955c1.377 1.295 2.458 2.797 3.207 4.54.317.743.535 1.508.705 2.294.109.53.245 1.066.289 1.601.049.716.093 1.442 0 2.152a15.66 15.66 0 0 1-.803 3.415 12.582 12.582 0 0 1-1.977 3.507 14.46 14.46 0 0 1-3.082 2.862 12.827 12.827 0 0 1-3.135 1.595c-1.142.394-2.316.596-3.518.743-.803.099-1.601.137-2.398.099-2.705-.137-5.272-.787-7.534-2.333-2.07-1.42-3.764-3.19-4.829-5.501a12.58 12.58 0 0 1-1.01-3.365 13.601 13.601 0 0 1-.104-3.43c.104-1.082.267-2.153.65-3.18.388-1.033.945-1.961 1.584-2.852.503-.699 1.049-1.365 1.683-1.955 1.48-1.394 3.124-2.508 5.086-3.13.956-.301 1.911-.569 2.917-.683.77-.088 1.54-.148 2.31-.153v.01zm3.529 13.242c.077-.803-.163-1.59-.595-2.321-.612-1.038-1.557-1.606-2.726-1.716-1.688-.158-3.076.962-3.605 2.366-.345.901-.383 1.813-.197 2.775.251 1.316 1.409 2.797 2.955 2.966.224.022.448.104.672.099.252-.006.508-.066.754-.137a3.367 3.367 0 0 0 1.721-1.06c.732-.841 1.082-1.803 1.027-2.977l-.006.005zm-41.25 4.289v6.73c0 .29 0 .579-.044.858-.076.546-.404.874-.95.956-.17.027-.344.027-.514.027h-7.85c-.541 0-1.016-.104-1.437-.47-.387-.344-.808-.35-1.272-.11-.661.345-1.372.574-2.104.738-1.125.252-2.267.394-3.408.295-.82-.07-1.639-.185-2.442-.426-1.808-.546-3.098-1.682-4.032-3.283-.573-.978-.89-2.049-1.114-3.146a2.943 2.943 0 0 1-.011-1.115c.229-1.153.497-2.294 1.049-3.349.595-1.141 1.447-2.054 2.518-2.775a11.924 11.924 0 0 1 3.343-1.54 20.746 20.746 0 0 1 3.873-.743c.765-.071 1.53-.208 2.289-.312a.652.652 0 0 0 .448-.229c.186-.213.208-.48.044-.7-.328-.436-.787-.666-1.3-.78a9.048 9.048 0 0 0-2.393-.208c-2.502.11-4.845.797-7.091 1.874-.18.087-.355.185-.546.256-.158.06-.322.12-.492.142-.546.066-.868-.207-.928-.764-.017-.17-.011-.345-.011-.52 0-1.725.033-3.452-.011-5.178-.027-.945.377-1.508 1.218-1.846a27.797 27.797 0 0 1 3.016-1c1.13-.317 2.289-.52 3.447-.678 1.649-.229 3.31-.278 4.976-.213 1.47.055 2.907.29 4.311.7 1.939.568 3.649 1.53 4.993 3.059 1.087 1.234 1.709 2.704 2.048 4.3.284 1.348.399 2.714.388 4.096-.016 1.787 0 3.567 0 5.348l-.011.006zm-11.046-.443h-.011c0-.513.011-1.032 0-1.54a.533.533 0 0 0-.562-.525c-.197 0-.405.022-.59.077-.902.268-1.661.76-2.235 1.508a2.004 2.004 0 0 0-.388 1.698c.121.552.421.99.978 1.219.76.317 1.514.262 2.235-.088.382-.185.595-.519.584-.972-.011-.459 0-.918 0-1.371l-.011-.006zm14.871-16.7c1.147 0 2.3.011 3.452 0 .465-.005.913.06 1.361.137.426.07.743.295.928.688.099.208.186.42.246.645.65 2.376 1.295 4.747 1.939 7.123.148.552.306 1.104.481 1.65.098.3.18.606.443.82.092.076.24.081.289-.022.115-.23.246-.454.312-.7.3-1.103.584-2.212.863-3.321.469-1.857.934-3.72 1.404-5.578.049-.196.125-.382.207-.562.191-.42.514-.656.983-.743a7.604 7.604 0 0 1 1.361-.126c2.043.006 4.08.011 6.124 0 .437 0 .852.104 1.272.164.355.05.563.372.574.749.011.322-.049.617-.164.923-.677 1.792-1.322 3.6-2.005 5.397-.497 1.311-1.038 2.606-1.546 3.917-.666 1.71-1.322 3.42-1.983 5.13-.836 2.163-1.666 4.332-2.502 6.495-.196.508-.393 1.016-.584 1.524a9.162 9.162 0 0 1-.153.399c-.279.694-.809 1.021-1.541 1.027h-6.298c-.825.01-1.344-.416-1.645-1.148-.24-.584-.469-1.168-.704-1.753-.978-2.447-1.951-4.895-2.934-7.342-1.174-2.928-2.354-5.85-3.529-8.773-.65-1.623-1.311-3.24-1.961-4.862-.115-.29-.24-.58-.235-.907.011-.355.235-.727.568-.76.426-.049.836-.18 1.273-.174 1.235.022 2.475.005 3.709.005l-.005-.022z"/></g><defs><clipPath id="clip0_2044_761"><path fill="#fff" transform="translate(9.296 .527)" d="M0 0H351.664V239.288H0z"/></clipPath></defs></svg>