<svg width="276" height="15" viewBox="0 0 276 15" fill="none" xmlns="http://www.w3.org/2000/svg">
<path d="M6.21793 9.09727H3.67771V12.9704C3.67771 13.5222 3.5466 13.9428 3.28438 14.2323C3.02217 14.5164 2.6944 14.6639 2.29561 14.6639C1.89683 14.6639 1.54174 14.5219 1.28499 14.2433C1.02824 13.9592 0.902588 13.5386 0.902588 12.9923V2.44355C0.902588 1.83171 1.04462 1.40014 1.32323 1.13792C1.60183 0.875705 2.04979 0.744597 2.65616 0.744597H6.21246C7.26679 0.744597 8.07529 0.826541 8.63796 0.984963C9.20063 1.13792 9.68136 1.40015 10.0856 1.76069C10.4953 2.12124 10.8067 2.56372 11.0198 3.08816C11.2328 3.61259 11.3366 4.19712 11.3366 4.85266C11.3366 6.24568 10.905 7.30547 10.0474 8.02656C9.18971 8.74219 7.9114 9.10274 6.21246 9.10274L6.21793 9.09727ZM5.546 2.82593H3.67771V7.01047H5.546C6.20154 7.01047 6.74236 6.93946 7.17939 6.80289C7.62187 6.66632 7.95511 6.44234 8.19001 6.13096C8.41945 5.81958 8.53417 5.40987 8.53417 4.90729C8.53417 4.30638 8.35935 3.80925 8.00427 3.43232C7.60548 3.02807 6.78606 2.82593 5.55146 2.82593H5.546ZM13.2923 8.7695V2.18679C13.2923 1.62958 13.4179 1.20895 13.6638 0.92488C13.9205 0.646275 14.2538 0.504231 14.6635 0.504231C15.0732 0.504231 15.4337 0.646275 15.6796 0.92488C15.9363 1.20348 16.0619 1.62412 16.0619 2.18679V8.91701C16.0619 9.6818 16.1439 10.3264 16.3132 10.8399C16.4881 11.348 16.794 11.7467 17.2255 12.0363C17.6626 12.3149 18.2689 12.4569 19.0556 12.4569C20.1372 12.4569 20.902 12.1729 21.35 11.5993C21.7979 11.0202 22.0219 10.1461 22.0219 8.97709V2.19226C22.0219 1.62413 22.1475 1.20349 22.3934 0.930348C22.6447 0.651743 22.9779 0.509699 23.3931 0.509699C23.8082 0.509699 24.1469 0.651743 24.4037 0.930348C24.6659 1.20349 24.797 1.62413 24.797 2.19226V8.77497C24.797 9.84568 24.6932 10.7361 24.4802 11.4518C24.2726 12.1674 23.8847 12.7956 23.3057 13.3364C22.8085 13.7953 22.2295 14.134 21.5685 14.3471C20.9075 14.5601 20.1372 14.6639 19.2522 14.6639C18.1979 14.6639 17.2965 14.5492 16.5372 14.3307C15.7779 14.1012 15.1606 13.7461 14.6799 13.2763C14.1991 12.7956 13.8495 12.1892 13.6255 11.4463C13.4015 10.6979 13.2868 9.80744 13.2868 8.77497L13.2923 8.7695ZM31.1448 8.57831H30.1724V12.9759C30.1724 13.5549 30.0468 13.981 29.79 14.2542C29.5333 14.5273 29.2001 14.6639 28.7903 14.6639C28.3479 14.6639 28.0037 14.5219 27.7633 14.2323C27.5175 13.9483 27.3973 13.5276 27.3973 12.9704V2.43808C27.3973 1.84263 27.5339 1.4056 27.8016 1.13792C28.0693 0.870243 28.5008 0.739145 29.1017 0.739145H33.6086C34.2313 0.739145 34.7612 0.766456 35.2037 0.821084C35.6462 0.87025 36.045 0.979499 36.4001 1.13792C36.8316 1.31819 37.2086 1.57496 37.5363 1.91365C37.8641 2.24688 38.1154 2.6402 38.2848 3.08816C38.4596 3.53065 38.547 4.00046 38.547 4.49758C38.547 5.51913 38.2574 6.33308 37.6784 6.94491C37.1048 7.55675 36.2362 7.98832 35.0671 8.24507C35.5588 8.50729 36.0286 8.88968 36.4766 9.40319C36.9245 9.91123 37.3233 10.4575 37.6729 11.0366C38.028 11.6102 38.3011 12.1291 38.4923 12.5935C38.6945 13.0524 38.7928 13.3747 38.7928 13.544C38.7928 13.7134 38.7327 13.9046 38.6125 14.0848C38.5033 14.2597 38.3448 14.3962 38.1482 14.4946C37.9515 14.5983 37.7166 14.653 37.4599 14.653C37.1485 14.653 36.8863 14.5765 36.6732 14.429C36.4602 14.287 36.2799 14.1012 36.1215 13.8773C35.974 13.6533 35.7664 13.3255 35.5042 12.8885L34.3952 11.042C33.9964 10.3646 33.6413 9.84568 33.3245 9.4906C33.0131 9.13551 32.6963 8.89516 32.374 8.76405C32.0517 8.63294 31.6419 8.56738 31.1503 8.56738L31.1448 8.57831ZM32.7291 2.82593H30.1724V6.58983H32.658C33.3245 6.58983 33.8817 6.53521 34.3406 6.42049C34.794 6.30031 35.1382 6.10363 35.3785 5.83049C35.6189 5.55189 35.7445 5.1695 35.7445 4.68331C35.7445 4.30638 35.6462 3.97313 35.455 3.6836C35.2638 3.38861 34.9961 3.17557 34.652 3.02807C34.3297 2.8915 33.6905 2.82048 32.74 2.82048L32.7291 2.82593ZM42.3382 2.32883L45.4356 11.5064L48.544 2.26326C48.7078 1.77707 48.828 1.44385 48.91 1.25265C48.9919 1.06145 49.123 0.886642 49.3142 0.739145C49.5 0.580723 49.7567 0.504231 50.079 0.504231C50.3139 0.504231 50.5324 0.564326 50.7345 0.679045C50.9421 0.799228 51.1006 0.957647 51.2098 1.15431C51.33 1.34551 51.3846 1.54218 51.3846 1.7443C51.3846 1.88088 51.3682 2.02838 51.33 2.19226C51.2918 2.35068 51.2481 2.50363 51.188 2.66206C51.1333 2.80955 51.0787 2.96798 51.0186 3.1264L47.7027 12.0691C47.5825 12.4132 47.4678 12.741 47.3476 13.0524C47.2274 13.3583 47.0908 13.626 46.9379 13.8663C46.7849 14.0958 46.5719 14.287 46.3151 14.4345C46.0584 14.582 45.747 14.6584 45.37 14.6584C44.9931 14.6584 44.6817 14.582 44.4195 14.4345C44.1628 14.2924 43.9552 14.1012 43.7968 13.8663C43.6383 13.6205 43.5018 13.3474 43.387 13.0469C43.2669 12.741 43.1521 12.4187 43.032 12.0745L39.7761 3.20834C39.7215 3.04445 39.6614 2.88604 39.6013 2.73308C39.5467 2.58012 39.4975 2.41076 39.4538 2.23049C39.4156 2.05021 39.3992 1.89726 39.3992 1.77161C39.3992 1.45477 39.5248 1.16524 39.7816 0.903024C40.0383 0.640808 40.3552 0.509699 40.743 0.509699C41.2183 0.509699 41.5515 0.657205 41.7427 0.946736C41.9394 1.2308 42.147 1.69514 42.3491 2.32883H42.3382ZM62.1136 2.88057H55.8696V6.2402H61.622C62.0426 6.2402 62.3595 6.33855 62.567 6.52975C62.7801 6.71549 62.8839 6.96677 62.8839 7.27816C62.8839 7.58954 62.7801 7.84629 62.578 8.04295C62.3704 8.23415 62.0535 8.33248 61.6274 8.33248H55.8751V12.2275H62.3376C62.7746 12.2275 63.1024 12.3313 63.3154 12.5334C63.5394 12.7301 63.6541 12.9977 63.6541 13.3364C63.6541 13.6751 63.5394 13.9264 63.3154 14.1285C63.0969 14.3252 62.7692 14.429 62.3376 14.429H54.8044C54.2034 14.429 53.7664 14.2979 53.4987 14.0302C53.2365 13.7625 53.1054 13.331 53.1054 12.7301V2.44355C53.1054 2.04476 53.1655 1.72245 53.2857 1.47116C53.4059 1.21441 53.5861 1.03413 53.8374 0.919411C54.0942 0.799229 54.4165 0.744597 54.8098 0.744597H62.13C62.5725 0.744597 62.9003 0.842938 63.1079 1.04506C63.3264 1.23626 63.4356 1.49301 63.4356 1.80986C63.4356 2.1267 63.3264 2.39437 63.1079 2.59104C62.8948 2.78224 62.567 2.88057 62.13 2.88057H62.1136ZM68.5161 12.9704V8.62748L65.1728 3.44871C64.8778 2.98436 64.6702 2.61835 64.5446 2.35614C64.4244 2.09392 64.3698 1.86448 64.3698 1.67328C64.3698 1.35644 64.49 1.0833 64.7358 0.85386C64.9871 0.624421 65.2875 0.509699 65.6481 0.509699C66.025 0.509699 66.3145 0.618959 66.5057 0.837472C66.7024 1.05052 66.9974 1.47662 67.3907 2.11577L69.9473 6.26753L72.5313 2.11577C72.6842 1.85902 72.8153 1.64597 72.9246 1.47116C73.0284 1.29635 73.1431 1.13792 73.2687 0.984963C73.3998 0.826541 73.5419 0.711824 73.7003 0.629882C73.8587 0.547939 74.0445 0.509699 74.2684 0.509699C74.6181 0.509699 74.9076 0.624421 75.137 0.85386C75.3719 1.07784 75.4921 1.34005 75.4921 1.64051C75.4921 1.88087 75.432 2.12669 75.3173 2.36706C75.1971 2.60742 74.995 2.94612 74.7109 3.37769L71.2857 8.63293V12.9759C71.2857 13.544 71.1546 13.9647 70.8924 14.2433C70.6302 14.5219 70.297 14.6639 69.8927 14.6639C69.4885 14.6639 69.1498 14.5273 68.893 14.2542C68.6363 13.9756 68.5106 13.5495 68.5106 12.9759L68.5161 12.9704ZM82.7905 0.509699C84.2108 0.509699 85.4235 0.799227 86.4396 1.37829C87.4612 1.95188 88.2314 2.77132 88.7559 3.83111C89.2803 4.8909 89.5425 6.13642 89.5425 7.56769C89.5425 8.62748 89.4005 9.58893 89.1109 10.4521C88.8269 11.3152 88.3953 12.0691 87.8217 12.7027C87.2481 13.3364 86.5434 13.8226 85.7131 14.1613C84.8772 14.5 83.9213 14.6639 82.8451 14.6639C81.7689 14.6639 80.8184 14.4946 79.9716 14.1504C79.1249 13.8008 78.4202 13.3146 77.852 12.6864C77.2839 12.0581 76.8578 11.3043 76.5628 10.4193C76.2788 9.53431 76.1313 8.57831 76.1313 7.5513C76.1313 6.52429 76.2787 5.5355 76.5792 4.65599C76.8851 3.77647 77.3222 3.03352 77.8957 2.41622C78.4693 1.79892 79.1631 1.32913 79.988 1.00682C80.8074 0.679049 81.7416 0.509699 82.7905 0.509699ZM86.7346 7.5513C86.7346 6.5516 86.5707 5.683 86.2484 4.94552C85.9261 4.20803 85.4618 3.6563 84.8554 3.28483C84.26 2.90243 83.5716 2.71669 82.7905 2.71669C82.2387 2.71669 81.7252 2.82047 81.2499 3.03352C80.7856 3.24111 80.3759 3.54157 80.0372 3.94036C79.6985 4.33914 79.4363 4.8472 79.2341 5.46996C79.0429 6.08726 78.9446 6.78104 78.9446 7.5513C78.9446 8.32156 79.0429 9.03172 79.2341 9.65994C79.4308 10.2882 79.7094 10.8126 80.0645 11.2278C80.425 11.6375 80.8348 11.9489 81.2991 12.151C81.7634 12.3586 82.2769 12.4569 82.8287 12.4569C83.5389 12.4569 84.1889 12.2766 84.7789 11.927C85.3744 11.5719 85.8496 11.0257 86.1993 10.2827C86.5543 9.53977 86.7291 8.63293 86.7291 7.54583L86.7346 7.5513ZM95.2566 8.57831H94.2842V12.9759C94.2842 13.5549 94.1586 13.981 93.9019 14.2542C93.6451 14.5273 93.3119 14.6639 92.9022 14.6639C92.4597 14.6639 92.1155 14.5219 91.8751 14.2323C91.6348 13.9483 91.5091 13.5276 91.5091 12.9704V2.43808C91.5091 1.84263 91.6402 1.4056 91.9079 1.13792C92.1756 0.870243 92.6072 0.739145 93.2081 0.739145H97.7149C98.3377 0.739145 98.8676 0.766456 99.3101 0.821084C99.7525 0.87025 100.151 0.979499 100.506 1.13792C100.938 1.31819 101.315 1.57496 101.643 1.91365C101.97 2.24688 102.222 2.6402 102.391 3.08816C102.566 3.53065 102.653 4.00046 102.653 4.49758C102.653 5.51913 102.364 6.33308 101.785 6.94491C101.211 7.55675 100.343 7.98832 99.168 8.24507C99.6597 8.50729 100.129 8.88968 100.577 9.40319C101.025 9.91123 101.424 10.4575 101.774 11.0366C102.129 11.6102 102.402 12.1291 102.593 12.5935C102.79 13.0524 102.894 13.3747 102.894 13.544C102.894 13.7134 102.834 13.9046 102.719 14.0848C102.604 14.2597 102.451 14.3962 102.255 14.4946C102.052 14.5983 101.823 14.653 101.566 14.653C101.255 14.653 100.993 14.5765 100.785 14.429C100.572 14.287 100.392 14.1012 100.233 13.8773C100.086 13.6533 99.8782 13.3255 99.616 12.8885L98.507 11.042C98.1082 10.3646 97.7531 9.84568 97.4308 9.4906C97.1195 9.13551 96.8026 8.89516 96.4803 8.76405C96.158 8.63294 95.7483 8.56738 95.2566 8.56738V8.57831ZM96.8409 2.82593H94.2842V6.58983H96.7698C97.4363 6.58983 97.9935 6.53521 98.4524 6.42049C98.9058 6.30031 99.25 6.10363 99.4903 5.83049C99.7362 5.55189 99.8563 5.1695 99.8563 4.68331C99.8563 4.30638 99.758 3.97313 99.5668 3.6836C99.3756 3.38861 99.1079 3.17557 98.7638 3.02807C98.4415 2.8915 97.8023 2.82048 96.8518 2.82048L96.8409 2.82593ZM115.311 10.3209C115.311 11.1513 115.098 11.8942 114.666 12.5498C114.245 13.2108 113.623 13.7243 112.798 14.1012C111.978 14.4727 111.001 14.6584 109.875 14.6584C108.526 14.6584 107.411 14.4017 106.532 13.8936C105.909 13.5276 105.401 13.036 105.008 12.4296C104.62 11.8123 104.429 11.2169 104.429 10.6378C104.429 10.2991 104.543 10.015 104.773 9.78013C105.008 9.53976 105.308 9.41413 105.669 9.41413C105.964 9.41413 106.21 9.50698 106.406 9.69272C106.614 9.87846 106.783 10.1571 106.931 10.5231C107.106 10.9601 107.291 11.3207 107.488 11.6156C107.696 11.9106 107.98 12.151 108.346 12.3422C108.712 12.5279 109.198 12.6208 109.793 12.6208C110.613 12.6208 111.279 12.4296 111.793 12.0527C112.312 11.6648 112.568 11.1895 112.568 10.6159C112.568 10.1625 112.426 9.79652 112.148 9.51245C111.875 9.22839 111.514 9.00987 111.077 8.85691C110.64 8.70941 110.055 8.55099 109.323 8.38164C108.34 8.1522 107.515 7.88452 106.849 7.57861C106.188 7.26722 105.663 6.84659 105.27 6.31669C104.882 5.78133 104.691 5.12032 104.691 4.32821C104.691 3.5361 104.899 2.90789 105.308 2.32336C105.718 1.73884 106.313 1.29089 107.089 0.979511C107.865 0.662667 108.783 0.504231 109.831 0.504231C110.673 0.504231 111.399 0.608034 112.006 0.821084C112.623 1.02867 113.131 1.30181 113.535 1.65143C113.94 1.99559 114.235 2.35614 114.42 2.73308C114.606 3.11547 114.699 3.48148 114.699 3.84203C114.699 4.1698 114.579 4.47025 114.344 4.73793C114.114 5.00014 113.825 5.13125 113.475 5.13125C113.158 5.13125 112.912 5.05477 112.749 4.89635C112.585 4.73247 112.41 4.47572 112.219 4.11517C111.967 3.5962 111.672 3.19741 111.323 2.91334C110.973 2.61835 110.416 2.47632 109.64 2.47632C108.925 2.47632 108.346 2.63474 107.903 2.95159C107.466 3.26297 107.248 3.63991 107.248 4.0824C107.248 4.35554 107.324 4.59043 107.472 4.79256C107.619 4.98922 107.827 5.16403 108.089 5.30607C108.351 5.4481 108.613 5.56283 108.881 5.63931C109.149 5.72125 109.591 5.83597 110.208 5.99439C110.979 6.17466 111.678 6.37678 112.301 6.58983C112.929 6.80835 113.459 7.07057 113.896 7.38195C114.338 7.69333 114.677 8.08665 114.923 8.56738C115.174 9.04264 115.294 9.62171 115.294 10.3155L115.311 10.3209ZM127.7 0.509699C129.121 0.509699 130.339 0.799227 131.35 1.37829C132.371 1.95188 133.141 2.77132 133.666 3.83111C134.19 4.8909 134.452 6.13642 134.452 7.56769C134.452 8.62748 134.31 9.58893 134.021 10.4521C133.737 11.3152 133.305 12.0691 132.732 12.7027C132.158 13.3364 131.459 13.8226 130.623 14.1613C129.787 14.5 128.831 14.6639 127.755 14.6639C126.679 14.6639 125.728 14.4946 124.882 14.1504C124.035 13.8008 123.33 13.3146 122.762 12.6864C122.194 12.0581 121.768 11.3043 121.473 10.4193C121.189 9.53431 121.041 8.57831 121.041 7.5513C121.041 6.52429 121.189 5.5355 121.489 4.65599C121.795 3.77647 122.232 3.03352 122.806 2.41622C123.379 1.79892 124.073 1.32913 124.898 1.00682C125.717 0.679049 126.652 0.509699 127.7 0.509699ZM131.639 7.5513C131.639 6.5516 131.475 5.683 131.153 4.94552C130.831 4.20803 130.366 3.6563 129.76 3.28483C129.164 2.90243 128.476 2.71669 127.695 2.71669C127.143 2.71669 126.63 2.82047 126.154 3.03352C125.69 3.24111 125.28 3.54157 124.942 3.94036C124.608 4.33914 124.335 4.8472 124.139 5.46996C123.947 6.08726 123.849 6.78104 123.849 7.5513C123.849 8.32156 123.947 9.03172 124.139 9.65994C124.335 10.2882 124.614 10.8126 124.969 11.2278C125.33 11.6375 125.739 11.9489 126.204 12.151C126.668 12.3586 127.181 12.4569 127.733 12.4569C128.443 12.4569 129.093 12.2766 129.683 11.927C130.279 11.5719 130.754 11.0257 131.104 10.2827C131.459 9.53977 131.634 8.63293 131.634 7.54583L131.639 7.5513ZM144.619 2.88057H139.156V6.38224H143.723C144.144 6.38224 144.46 6.48057 144.668 6.67177C144.881 6.85751 144.985 7.10881 144.985 7.43112C144.985 7.75342 144.881 7.99925 144.668 8.18499C144.455 8.37072 144.144 8.46358 143.723 8.46358H139.156V12.9704C139.156 13.544 139.025 13.9701 138.763 14.2487C138.506 14.5219 138.178 14.6584 137.774 14.6584C137.37 14.6584 137.025 14.5164 136.763 14.2378C136.506 13.9592 136.381 13.5331 136.381 12.9704V2.43808C136.381 2.03929 136.441 1.71698 136.556 1.46569C136.676 1.20894 136.856 1.02866 137.107 0.913943C137.364 0.793761 137.686 0.739145 138.08 0.739145H144.613C145.056 0.739145 145.384 0.83747 145.591 1.03959C145.81 1.23079 145.919 1.48754 145.919 1.80439C145.919 2.12123 145.81 2.38892 145.591 2.58559C145.378 2.77678 145.05 2.87511 144.613 2.87511L144.619 2.88057ZM154.73 2.19226V12.151H160.352C160.8 12.151 161.144 12.2603 161.379 12.4788C161.619 12.6973 161.745 12.9704 161.745 13.2982C161.745 13.626 161.625 13.91 161.39 14.1176C161.155 14.3252 160.805 14.4235 160.352 14.4235H153.66C153.059 14.4235 152.622 14.2924 152.354 14.0247C152.092 13.7571 151.961 13.3255 151.961 12.7246V2.18132C151.961 1.62412 152.086 1.20348 152.332 0.919411C152.589 0.640807 152.922 0.498779 153.332 0.498779C153.742 0.498779 154.086 0.640807 154.343 0.919411C154.605 1.19255 154.736 1.61319 154.736 2.18132L154.73 2.19226ZM168.256 0.509699C169.677 0.509699 170.895 0.799227 171.906 1.37829C172.927 1.95188 173.697 2.77132 174.222 3.83111C174.746 4.8909 175.009 6.13642 175.009 7.56769C175.009 8.62748 174.866 9.58893 174.577 10.4521C174.293 11.3152 173.861 12.0691 173.288 12.7027C172.714 13.3364 172.015 13.8226 171.179 14.1613C170.343 14.5 169.387 14.6639 168.311 14.6639C167.235 14.6639 166.284 14.4946 165.438 14.1504C164.591 13.8008 163.886 13.3146 163.318 12.6864C162.75 12.0581 162.324 11.3043 162.029 10.4193C161.745 9.53431 161.597 8.57831 161.597 7.5513C161.597 6.52429 161.745 5.5355 162.045 4.65599C162.351 3.77647 162.788 3.03352 163.362 2.41622C163.935 1.79892 164.629 1.32913 165.454 1.00682C166.273 0.679049 167.208 0.509699 168.256 0.509699ZM172.195 7.5513C172.195 6.5516 172.031 5.683 171.709 4.94552C171.387 4.20803 170.922 3.6563 170.316 3.28483C169.72 2.90243 169.032 2.71669 168.251 2.71669C167.699 2.71669 167.186 2.82047 166.71 3.03352C166.246 3.24111 165.836 3.54157 165.498 3.94036C165.165 4.33914 164.891 4.8472 164.695 5.46996C164.504 6.08726 164.405 6.78104 164.405 7.5513C164.405 8.32156 164.504 9.03172 164.695 9.65994C164.891 10.2882 165.17 10.8126 165.525 11.2278C165.886 11.6375 166.295 11.9489 166.76 12.151C167.224 12.3586 167.737 12.4569 168.289 12.4569C168.999 12.4569 169.649 12.2766 170.239 11.927C170.835 11.5719 171.31 11.0257 171.66 10.2827C172.015 9.53977 172.19 8.63293 172.19 7.54583L172.195 7.5513ZM188.655 10.1079C188.655 10.5449 188.545 11.0147 188.327 11.5282C188.114 12.0308 187.781 12.5279 187.316 13.0196C186.857 13.5058 186.267 13.8991 185.552 14.205C184.836 14.5109 184 14.6639 183.05 14.6639C182.329 14.6639 181.673 14.5983 181.078 14.4563C180.488 14.3197 179.947 14.1067 179.461 13.8226C178.98 13.5276 178.538 13.1452 178.133 12.6754C177.773 12.2439 177.467 11.7686 177.21 11.2387C176.953 10.7034 176.762 10.1352 176.631 9.52884C176.505 8.92247 176.445 8.2833 176.445 7.60591C176.445 6.50242 176.604 5.51912 176.921 4.64507C177.243 3.77101 177.707 3.02806 178.303 2.41622C178.898 1.79346 179.603 1.31821 180.406 0.995899C181.209 0.673592 182.067 0.509699 182.973 0.509699C184.082 0.509699 185.066 0.728208 185.934 1.1707C186.797 1.61319 187.464 2.15948 187.923 2.81501C188.382 3.45963 188.616 4.07693 188.616 4.65599C188.616 4.97283 188.502 5.25144 188.278 5.49727C188.054 5.7431 187.786 5.86328 187.464 5.86328C187.109 5.86328 186.841 5.78133 186.661 5.61198C186.486 5.44263 186.289 5.15311 186.071 4.74339C185.71 4.066 185.284 3.55795 184.792 3.21926C184.306 2.88056 183.705 2.71669 182.99 2.71669C181.848 2.71669 180.941 3.14825 180.264 4.01684C179.592 4.87997 179.253 6.10911 179.253 7.70426C179.253 8.76951 179.401 9.65449 179.701 10.3647C180.002 11.0694 180.422 11.5938 180.968 11.9434C181.515 12.293 182.159 12.4678 182.891 12.4678C183.689 12.4678 184.361 12.2712 184.907 11.8779C185.459 11.4791 185.88 10.9 186.158 10.1352C186.278 9.77466 186.42 9.47968 186.595 9.2557C186.77 9.02626 187.049 8.91154 187.436 8.91154C187.764 8.91154 188.048 9.02626 188.283 9.2557C188.518 9.48514 188.638 9.77467 188.638 10.1134L188.655 10.1079ZM199.52 12.8776L198.865 11.1622H193.298L192.643 12.9158C192.386 13.5986 192.167 14.063 191.987 14.3088C191.807 14.5437 191.512 14.6639 191.102 14.6639C190.752 14.6639 190.446 14.5382 190.179 14.2815C189.911 14.0247 189.775 13.7352 189.775 13.4129C189.775 13.2272 189.807 13.0305 189.867 12.8338C189.928 12.6372 190.031 12.3586 190.173 12.0035L193.675 3.11548C193.773 2.85873 193.894 2.55826 194.03 2.20318C194.172 1.84263 194.325 1.54217 194.478 1.30727C194.642 1.07237 194.85 0.881179 195.101 0.739145C195.363 0.591649 195.685 0.515167 196.062 0.515167C196.439 0.515167 196.767 0.591649 197.024 0.739145C197.286 0.881179 197.494 1.06691 197.652 1.30182C197.816 1.53126 197.947 1.78254 198.051 2.05022C198.165 2.31244 198.302 2.66205 198.471 3.10454L202.05 11.938C202.328 12.6099 202.47 13.0961 202.47 13.402C202.47 13.7079 202.339 14.0138 202.066 14.2815C201.804 14.5437 201.487 14.6748 201.115 14.6748C200.897 14.6748 200.711 14.6366 200.553 14.5546C200.394 14.4782 200.269 14.3798 200.159 14.2487C200.056 14.1121 199.941 13.9046 199.815 13.6314C199.695 13.3528 199.597 13.107 199.509 12.8939L199.52 12.8776ZM194.036 9.08088H198.127L196.062 3.43232L194.036 9.08088ZM206.862 2.19226V12.151H212.484C212.932 12.151 213.276 12.2603 213.511 12.4788C213.756 12.6973 213.877 12.9704 213.877 13.2982C213.877 13.626 213.756 13.91 213.521 14.1176C213.287 14.3252 212.937 14.4235 212.484 14.4235H205.792C205.191 14.4235 204.754 14.2924 204.486 14.0247C204.224 13.7571 204.093 13.3255 204.093 12.7246V2.18132C204.093 1.62412 204.218 1.20348 204.464 0.919411C204.721 0.640807 205.054 0.498779 205.464 0.498779C205.874 0.498779 206.218 0.640807 206.474 0.919411C206.737 1.19255 206.868 1.61319 206.868 2.18132L206.862 2.19226ZM232.221 8.86237V11.4845C232.221 11.8341 232.188 12.1128 232.117 12.3258C232.051 12.5334 231.92 12.7191 231.735 12.883C231.554 13.0524 231.319 13.2108 231.035 13.3692C230.205 13.8172 229.413 14.1449 228.643 14.3471C227.878 14.5547 227.042 14.653 226.141 14.653C225.086 14.653 224.13 14.4891 223.267 14.1668C222.404 13.8445 221.667 13.3747 221.055 12.7574C220.443 12.1401 219.973 11.3971 219.645 10.5176C219.323 9.6381 219.159 8.66025 219.159 7.57861C219.159 6.49696 219.318 5.54097 219.634 4.65599C219.951 3.77101 220.416 3.0226 221.033 2.4053C221.65 1.788 222.399 1.31821 223.284 0.995899C224.169 0.668129 225.168 0.498779 226.288 0.498779C227.211 0.498779 228.025 0.62442 228.735 0.870248C229.446 1.11061 230.019 1.422 230.462 1.79347C230.904 2.16494 231.237 2.56373 231.461 2.97891C231.685 3.39409 231.8 3.76556 231.8 4.08786C231.8 4.43749 231.669 4.73247 231.407 4.98376C231.15 5.22412 230.844 5.34978 230.484 5.34978C230.287 5.34978 230.09 5.30061 229.905 5.20774C229.724 5.11487 229.571 4.98376 229.446 4.81441C229.101 4.27906 228.812 3.87481 228.577 3.60166C228.342 3.32852 228.02 3.09908 227.616 2.91334C227.217 2.72761 226.709 2.63475 226.086 2.63475C225.463 2.63475 224.873 2.744 224.371 2.96797C223.868 3.18649 223.437 3.50334 223.071 3.92944C222.715 4.34461 222.442 4.85812 222.251 5.46996C222.065 6.0818 221.972 6.75372 221.972 7.49667C221.972 9.10274 222.339 10.3373 223.076 11.2059C223.819 12.0691 224.846 12.5061 226.168 12.5061C226.807 12.5061 227.408 12.4241 227.971 12.2548C228.539 12.0854 229.112 11.8451 229.686 11.5337V9.31033H227.539C227.02 9.31033 226.632 9.23384 226.365 9.07542C226.102 8.91699 225.971 8.65479 225.971 8.28332C225.971 7.9774 226.081 7.7261 226.299 7.52944C226.523 7.33278 226.823 7.22899 227.206 7.22899H230.352C230.74 7.22899 231.063 7.26175 231.33 7.33277C231.598 7.39833 231.811 7.5513 231.975 7.79166C232.144 8.02657 232.226 8.38164 232.226 8.85691L232.221 8.86237ZM240.497 0.509699C241.917 0.509699 243.135 0.799227 244.146 1.37829C245.168 1.95188 245.938 2.77132 246.462 3.83111C246.987 4.8909 247.244 6.13642 247.244 7.56769C247.244 8.62748 247.102 9.58893 246.812 10.4521C246.528 11.3152 246.096 12.0691 245.523 12.7027C244.949 13.3364 244.244 13.8226 243.414 14.1613C242.578 14.5 241.628 14.6639 240.546 14.6639C239.464 14.6639 238.519 14.4946 237.673 14.1504C236.826 13.8008 236.121 13.3146 235.553 12.6864C234.985 12.0581 234.559 11.3043 234.264 10.4193C233.98 9.53431 233.832 8.57831 233.832 7.5513C233.832 6.52429 233.98 5.5355 234.28 4.65599C234.586 3.77647 235.023 3.03352 235.597 2.41622C236.17 1.79892 236.864 1.32913 237.689 1.00682C238.508 0.679049 239.443 0.509699 240.492 0.509699H240.497ZM244.441 7.5513C244.441 6.5516 244.277 5.683 243.955 4.94552C243.633 4.20803 243.168 3.6563 242.562 3.28483C241.966 2.90243 241.278 2.71669 240.497 2.71669C239.945 2.71669 239.432 2.82047 238.956 3.03352C238.492 3.24111 238.082 3.54157 237.744 3.94036C237.405 4.33914 237.137 4.8472 236.941 5.46996C236.749 6.08726 236.651 6.78104 236.651 7.5513C236.651 8.32156 236.749 9.03172 236.941 9.65994C237.137 10.2882 237.416 10.8126 237.771 11.2278C238.132 11.6375 238.541 11.9489 239.006 12.151C239.47 12.3586 239.983 12.4569 240.535 12.4569C241.245 12.4569 241.895 12.2766 242.485 11.927C243.081 11.5719 243.556 11.0257 243.906 10.2827C244.261 9.53977 244.436 8.63293 244.436 7.54583L244.441 7.5513ZM255.258 0.509699C256.678 0.509699 257.896 0.799227 258.907 1.37829C259.928 1.95188 260.699 2.77132 261.223 3.83111C261.747 4.8909 262.01 6.13642 262.01 7.56769C262.01 8.62748 261.868 9.58893 261.578 10.4521C261.294 11.3152 260.862 12.0691 260.289 12.7027C259.715 13.3364 259.016 13.8226 258.18 14.1613C257.344 14.5 256.388 14.6639 255.312 14.6639C254.236 14.6639 253.285 14.4946 252.439 14.1504C251.592 13.8008 250.887 13.3146 250.319 12.6864C249.751 12.0581 249.325 11.3043 249.03 10.4193C248.746 9.53431 248.598 8.57831 248.598 7.5513C248.598 6.52429 248.746 5.5355 249.046 4.65599C249.352 3.77647 249.789 3.03352 250.363 2.41622C250.936 1.79892 251.63 1.32913 252.455 1.00682C253.275 0.679049 254.209 0.509699 255.258 0.509699ZM259.202 7.5513C259.202 6.5516 259.038 5.683 258.716 4.94552C258.393 4.20803 257.929 3.6563 257.322 3.28483C256.727 2.90243 256.039 2.71669 255.258 2.71669C254.706 2.71669 254.192 2.82047 253.717 3.03352C253.253 3.24111 252.843 3.54157 252.504 3.94036C252.171 4.33914 251.903 4.8472 251.701 5.46996C251.51 6.08726 251.412 6.78104 251.412 7.5513C251.412 8.32156 251.51 9.03172 251.701 9.65994C251.898 10.2882 252.177 10.8126 252.532 11.2278C252.892 11.6375 253.302 11.9489 253.766 12.151C254.231 12.3586 254.744 12.4569 255.296 12.4569C256.006 12.4569 256.656 12.2766 257.246 11.927C257.841 11.5719 258.317 11.0257 258.666 10.2827C259.021 9.53977 259.196 8.63293 259.196 7.54583L259.202 7.5513ZM265.719 0.744597H269.33C270.269 0.744597 271.078 0.832008 271.75 1.00682C272.422 1.18163 273.034 1.5094 273.58 1.98467C275.006 3.20288 275.716 5.06025 275.716 7.5513C275.716 8.37072 275.645 9.12459 275.503 9.80198C275.361 10.4794 275.137 11.0912 274.842 11.643C274.541 12.1838 274.159 12.67 273.695 13.1015C273.329 13.4293 272.924 13.697 272.487 13.8936C272.05 14.0903 271.58 14.2323 271.078 14.3143C270.581 14.3962 270.018 14.4345 269.39 14.4345H265.779C265.276 14.4345 264.894 14.358 264.637 14.2105C264.38 14.0521 264.217 13.839 264.135 13.5659C264.058 13.2873 264.02 12.9267 264.02 12.4842V2.44901C264.02 1.85357 264.151 1.41654 264.424 1.14886C264.692 0.881179 265.123 0.750065 265.724 0.750065L265.719 0.744597ZM266.79 2.9352V12.2275H268.893C269.352 12.2275 269.712 12.2166 269.974 12.1892C270.237 12.1619 270.504 12.1018 270.788 12.0035C271.067 11.9052 271.313 11.7631 271.515 11.5829C272.444 10.7962 272.908 9.4469 272.908 7.52944C272.908 6.18012 272.7 5.16951 272.291 4.49758C271.886 3.82565 271.384 3.39953 270.788 3.21926C270.193 3.03352 269.472 2.94067 268.625 2.94067H266.795L266.79 2.9352Z" fill="black"/>
</svg>
